<svg width="260" height="23" viewBox="0 0 260 23" fill="none" xmlns="http://www.w3.org/2000/svg">
<path d="M6.39522 4.07175H1.1026V1.87079H14.1136V4.07175H8.82101V21.0191H6.39522V4.07175Z" fill="black"/>
<path d="M9.92366 22.1196H5.29262V5.17224H0V0.880371H15.106V5.17224H9.92366V22.1196ZM7.38762 20.0287H7.71841V3.08133H12.9008V2.97128H2.095V3.08133H7.38762V20.0287Z" fill="black"/>
<path d="M23.3757 1.87079H25.8015V9.90428H33.4097V1.87079H35.8354V21.0191H33.4097V12.1052H25.8015V21.1292H23.3757V1.87079Z" fill="black"/>
<path d="M37.0484 22.1196H32.4173V13.0957H26.9042V22.1196H22.2731V0.880371H26.9042V8.80382H32.4173V0.880371H37.0484V22.1196ZM34.5123 20.0287H34.8431V2.97128H34.5123V10.8947H24.8092V2.97128H24.4784V20.0287H24.8092V11.0048H34.5123V20.0287Z" fill="black"/>
<path d="M46.5309 1.87079H58.5496V4.07175H49.067V9.90428H56.8957V12.1052H49.067V18.9282H58.5496V21.1292H46.5309V1.87079Z" fill="black"/>
<path d="M59.6522 22.1196H45.5386V0.880371H59.6522V5.17224H50.1696V8.80382H57.9983V13.0957H50.1696V17.8277H59.6522V22.1196ZM47.6336 20.0287H57.5572V19.9187H48.0746V11.0048H55.9033V10.8947H48.0746V3.08133H57.5572V2.97128H47.6336V20.0287Z" fill="black"/>
<path d="M92.0695 14.9665C92.5106 17.2775 93.7235 19.0383 96.2595 19.0383C98.2442 19.0383 99.8982 17.9378 99.8982 15.8469C99.8982 13.5359 97.9134 12.8756 96.039 12.1052C93.2824 10.8947 90.5258 10.2344 90.5258 6.60285C90.5258 3.41146 93.1721 1.54065 96.1492 1.54065C99.3469 1.54065 101.221 3.41146 101.993 6.38276L99.6777 7.04304C99.2366 5.17223 98.2442 3.85165 96.1492 3.85165C94.6056 3.85165 93.0619 4.62199 93.0619 6.38276C93.0619 8.14352 94.1645 8.69376 95.5979 9.35405L99.6777 11.1148C101.442 12.1052 102.324 13.6459 102.324 15.6268C102.324 19.2584 99.7879 21.3493 96.2595 21.3493C92.7311 21.3493 90.4156 19.0383 89.8643 15.6268L92.0695 14.9665Z" fill="black"/>
<path d="M96.2595 22.4498C92.29 22.4498 89.5335 20.0287 88.7616 15.8469L88.6514 14.9665L92.8414 13.6459L93.0619 14.7464C93.6132 17.6076 95.0466 17.9378 96.2595 17.9378C97.0314 17.9378 98.7956 17.7177 98.7956 15.7368C98.7956 14.4163 98.0237 13.9761 96.039 13.2057L95.5979 12.9856C95.3774 12.8756 95.1569 12.7655 94.8261 12.6555C92.29 11.6651 89.4232 10.4545 89.4232 6.49282C89.4232 2.86124 92.1798 0.440186 96.1492 0.440186C99.6777 0.440186 102.103 2.42105 102.986 6.05262L103.206 7.04306L98.7956 8.36363L98.575 7.26315C98.0237 5.17224 97.0313 4.8421 96.039 4.8421C95.8185 4.8421 93.944 4.8421 93.944 6.38277C93.944 7.3732 94.2748 7.70334 95.9287 8.36363L100.119 10.2344C102.214 11.3349 103.316 13.3158 103.316 15.6268C103.427 19.8086 100.56 22.4498 96.2595 22.4498ZM91.0771 16.3971C91.849 18.9282 93.6132 20.3588 96.2595 20.3588C99.4571 20.3588 101.332 18.5981 101.332 15.7368C101.332 14.1962 100.67 12.9856 99.2366 12.2153L95.1569 10.4545C93.6132 9.79425 91.9593 9.02392 91.9593 6.49282C91.9593 4.40191 93.7235 2.86124 96.1492 2.86124C97.5827 2.86124 99.4571 3.41148 100.339 5.83253L100.67 5.72248C99.8982 3.63157 98.3545 2.64114 96.1492 2.64114C93.8337 2.64114 91.5182 3.85167 91.5182 6.60286C91.5182 9.02392 92.9516 9.79425 95.5979 10.8947C95.8185 11.0048 96.039 11.1148 96.3698 11.2249L96.8108 11.445C98.575 12.2153 100.891 13.0957 100.891 15.9569C100.891 18.488 99.0161 20.2488 96.2595 20.2488C94.4953 20.2488 92.29 19.5885 91.2977 16.3971H91.0771Z" fill="black"/>
<path d="M113.13 1.43063L114.563 14.9665H114.673L117.871 5.5024H118.533L121.73 14.9665H121.841L123.384 1.43063L125.92 1.76078L123.164 21.5694H122.282L118.312 9.79427L114.343 21.5694H113.461L110.704 1.76078L113.13 1.43063Z" fill="black"/>
<path d="M124.046 22.6699H121.51L118.202 13.0957L114.894 22.6699H112.468L109.381 0.770332L114.012 0.220093L115.115 10.2344L117.099 4.40191H119.304L121.289 10.2344L122.392 0.220093L127.023 0.770332L124.046 22.6699ZM111.807 2.64115L114.012 18.8182L115.004 15.9569H113.681L112.248 2.64115H111.807ZM121.51 15.9569L122.502 18.8182L124.707 2.64115H124.266L122.723 15.9569H121.51Z" fill="black"/>
<path d="M137.057 15.8469L135.293 21.5694L132.867 20.689L138.931 1.87079H142.129L148.193 20.689L145.768 21.5694L144.003 15.8469H137.057ZM140.365 4.73203L137.608 13.6459H143.121L140.365 4.73203Z" fill="black"/>
<path d="M144.885 22.8899L143.011 16.8373H137.829L135.954 22.8899L131.544 21.2392L138.159 0.770325H142.901L149.517 21.2392L144.885 22.8899ZM134.08 20.0287L134.521 20.1387L136.285 14.7464H144.665L146.319 20.1387L146.76 20.0287L141.247 2.97128H140.916L144.555 14.7464H136.285L139.924 2.97128H139.703L134.08 20.0287ZM139.042 12.5454H141.688L140.365 8.25358L139.042 12.5454Z" fill="black"/>
<path d="M159.881 21.1292H157.455V1.87079H163.41C167.82 1.87079 169.584 4.29184 169.584 7.15309C169.584 11.2249 166.718 12.8756 163.961 12.8756H159.881V21.1292ZM163.299 10.6746C165.725 10.6746 167.048 9.57414 167.048 7.37318C167.048 4.73203 165.394 4.18179 163.299 4.18179H159.881V10.6746H163.299Z" fill="black"/>
<path d="M160.984 22.1196H156.353V0.880371H163.41C166.938 0.880371 170.687 2.53109 170.687 7.1531C170.687 11.7751 167.379 13.866 164.071 13.866H160.984V22.1196ZM158.448 20.0287H158.779V11.7751H163.961C166.166 11.7751 168.482 10.5646 168.482 7.1531C168.482 4.51195 166.607 2.97128 163.299 2.97128H158.338V20.0287H158.448ZM163.299 11.6651H158.889V3.08133H163.299C167.269 3.08133 168.041 5.39233 168.041 7.37319C168.151 10.1244 166.387 11.6651 163.299 11.6651ZM160.984 9.57415H163.299C165.615 9.57415 165.946 8.47367 165.946 7.26315C165.946 5.83252 165.505 5.06219 163.299 5.06219H160.984V9.57415Z" fill="black"/>
<path d="M182.044 21.1292H179.618V1.87079H185.572C189.983 1.87079 191.747 4.29184 191.747 7.15309C191.747 11.2249 188.88 12.8756 186.124 12.8756H182.044V21.1292ZM185.462 10.6746C187.888 10.6746 189.211 9.57414 189.211 7.37318C189.211 4.73203 187.557 4.18179 185.462 4.18179H182.044V10.6746H185.462Z" fill="black"/>
<path d="M183.147 22.1196H178.516V0.880371H185.573C189.101 0.880371 192.85 2.53109 192.85 7.1531C192.85 11.7751 189.542 13.866 186.234 13.866H183.147V22.1196ZM180.611 20.0287H180.941V11.7751H186.124C188.329 11.7751 190.645 10.5646 190.645 7.1531C190.645 4.51195 188.77 2.97128 185.462 2.97128H180.5V20.0287H180.611ZM185.462 11.6651H181.052V3.08133H185.462C189.432 3.08133 190.204 5.39233 190.204 7.37319C190.204 10.1244 188.55 11.6651 185.462 11.6651ZM183.147 9.57415H185.462C187.778 9.57415 188.109 8.47367 188.109 7.26315C188.109 5.83252 187.668 5.06219 185.462 5.06219H183.147V9.57415Z" fill="black"/>
<path d="M201.561 1.87079H213.579V4.07175H203.986V9.90428H211.815V12.1052H203.986V18.9282H213.469V21.1292H201.45V1.87079H201.561Z" fill="black"/>
<path d="M214.572 22.1196H200.458V0.880371H214.572V5.17224H205.089V8.80382H212.918V13.0957H205.089V17.8277H214.572V22.1196ZM202.553 20.0287H212.477V19.9187H202.994V11.0048H210.823V10.8947H202.994V3.08133H212.477V2.97128H202.553V20.0287Z" fill="black"/>
<path d="M223.393 1.87079H229.898C233.096 1.87079 235.632 3.41146 235.632 7.15309C235.632 9.46409 234.088 11.8851 231.773 12.5454L236.514 20.3588L234.419 21.6794L229.457 12.9856H225.929V21.2392H223.503V1.87079H223.393ZM229.126 10.6746C231.552 10.6746 233.096 9.35404 233.096 7.15309C233.096 5.39232 232.103 4.18179 229.898 4.18179H225.929V10.7847H229.126V10.6746Z" fill="black"/>
<path d="M233.978 23L228.796 13.866H226.921V22.1196H222.29V0.880371H229.898C234.198 0.880371 236.735 3.19138 236.735 7.1531C236.735 9.57415 235.301 11.8852 233.316 12.9856L237.947 20.5789L233.978 23ZM224.826 11.7751H230.119L234.75 20.0287L235.081 19.8086L230.229 11.7751L231.552 11.3349C233.316 10.7847 234.75 8.91386 234.75 6.933C234.75 3.52152 232.214 2.75118 230.008 2.75118H224.495V19.8086H224.826V11.7751ZM229.126 11.6651H224.826V3.08133H229.898C232.545 3.08133 234.198 4.73205 234.198 7.1531C234.198 9.90429 232.103 11.6651 229.126 11.6651ZM226.921 9.57415H229.126C231.001 9.57415 232.103 8.69377 232.103 7.04305C232.103 5.72248 231.332 5.06219 229.898 5.06219H226.921V9.57415Z" fill="black"/>
<path d="M256.251 1.43063L258.567 2.64116L252.282 13.6459V21.0192H249.856V13.6459L243.681 2.64116L245.997 1.43063L251.179 11.3349L256.251 1.43063Z" fill="black"/>
<path d="M253.384 22.1196H248.753V13.9761L242.137 2.20096L246.327 0L250.958 9.02392L255.81 0L260 2.20096L253.384 13.9761V22.1196ZM250.958 20.0287H251.289V13.4258L257.133 3.08134L256.692 2.86124L251.069 13.6459L245.445 2.86124L245.004 3.08134L250.848 13.4258V20.0287H250.958Z" fill="black"/>
</svg>
