<svg width="2126" height="189" viewBox="0 0 2126 189" fill="none" xmlns="http://www.w3.org/2000/svg">
<path d="M52.0477 33.6459H8.60205V15.5708H114.766V33.6459H72.3006V172.694H52.0477V33.6459Z" fill="black"/>
<path d="M80.9025 181.405H43.4456V42.2479H0V6.96875H123.477V42.3568H80.9025V181.405ZM60.6497 164.201H63.5896V25.0439H106.164V24.1728H17.204V25.0439H60.6497V164.201Z" fill="black"/>
<path d="M191.422 15.5708H211.675V80.7937H273.849V15.5708H293.993V172.803H273.74V98.8688H211.566V172.803H191.313V15.5708H191.422Z" fill="black"/>
<path d="M302.595 181.405H265.138V107.471H220.277V181.405H182.82V6.96875H220.277V72.1917H265.138V6.96875H302.595V181.405ZM282.451 164.201H285.391V24.1728H282.451V89.3957H203.073V24.1728H200.133V164.092H203.073V90.2668H282.451V164.201Z" fill="black"/>
<path d="M380.558 15.5708H478.664V33.6459H400.81V80.6848H465.053V98.7599H400.81V154.619H478.664V172.694H380.558V15.5708Z" fill="black"/>
<path d="M487.266 181.405H371.956V6.96875H487.266V42.3568H409.412V72.1917H473.655V107.58H409.412V146.125H487.266V181.405ZM389.268 164.201H470.062V163.33H392.208V90.2668H456.451V89.3957H392.208V25.0439H470.062V24.1728H389.268V164.201Z" fill="black"/>
<path d="M752.84 123.042C756.76 142.314 766.124 156.579 787.248 156.579C803.799 156.579 816.865 147.541 816.865 130.01C816.865 110.737 800.532 105.838 785.179 99.5221C762.204 89.8313 740.536 83.8425 740.536 54.2254C740.536 27.6572 761.986 12.8486 786.704 12.8486C812.945 12.8486 828.298 27.9838 834.722 52.3744L815.45 58.1453C811.856 42.7924 803.69 31.9037 786.486 31.9037C773.528 31.9037 760.789 38.5458 760.789 52.701C760.789 67.5096 769.826 71.7561 781.913 77.0916L815.45 91.9001C829.605 99.7399 837.118 112.371 837.118 128.704C837.118 158.539 816.321 175.416 787.357 175.416C758.067 175.416 739.665 156.687 734.874 128.704L752.84 123.042Z" fill="black"/>
<path d="M787.248 184.127C754.909 184.127 732.043 163.983 726.272 130.228L724.965 122.824L759.373 111.935L761.333 121.299C766.124 144.71 777.122 147.868 787.248 147.868C793.563 147.868 808.154 146.125 808.154 129.901C808.154 119.122 801.621 115.42 785.615 108.995L781.804 107.471C779.735 106.6 777.775 105.838 775.815 104.966C755.235 96.4733 731.825 87.0002 731.825 54.2254C731.825 24.8261 754.364 4.24658 786.595 4.24658C815.232 4.24658 835.267 20.5795 842.889 50.1966L844.958 58.2542L809.025 69.0339L806.956 60.1053C802.928 42.7923 794.326 40.5057 786.377 40.5057C784.635 40.5057 769.391 40.8324 769.391 52.701C769.391 61.1941 772.44 63.4807 785.397 69.2517L819.478 84.3869C836.356 93.7511 845.611 109.431 845.611 128.704C845.72 161.805 822.201 184.127 787.248 184.127ZM745 134.584C750.989 155.272 766.124 166.923 787.357 166.923C813.163 166.923 828.516 152.659 828.516 128.813C828.516 115.855 822.854 106.055 811.53 99.7399L778.428 85.1491C766.124 79.5959 752.187 73.2805 752.187 52.8099C752.187 35.497 766.233 23.4106 786.486 23.4106C798.463 23.4106 813.381 27.8749 821.112 47.5833L823.834 46.8211C817.192 29.9438 804.997 21.6684 786.704 21.6684C767.975 21.6684 749.138 31.7948 749.138 54.3343C749.138 74.5872 760.571 80.1404 782.457 89.1779C784.417 90.049 786.486 90.8112 788.555 91.6823L792.148 93.2067C806.956 99.1955 825.467 106.6 825.467 130.119C825.467 151.134 810.114 165.289 787.248 165.289C772.984 165.289 755.236 159.627 746.851 134.148L745 134.584Z" fill="black"/>
<path d="M925.207 11.6508L937.293 122.062H937.947L964.188 44.8611H969.633L995.874 122.062H996.528L1008.94 11.6508L1029.41 14.0463L1006.76 176.722H999.794L966.91 79.8137L934.027 176.722H927.058L904.301 14.0463L925.207 11.6508Z" fill="black"/>
<path d="M1014.17 185.325H993.588L966.91 106.709L940.233 185.325H919.654L894.61 6.53319L932.829 2.06885L941.758 83.8425L957.982 36.2592H975.73L991.954 84.0602L1001.1 2.06885L1038.99 6.53319L1014.17 185.325ZM914.101 21.5595L932.502 153.965L940.451 130.664H929.562L917.585 21.124L914.101 21.5595ZM993.152 130.664L1001.1 153.965L1019.5 21.5595L1016.34 21.2328L1004.04 130.664H993.152Z" fill="black"/>
<path d="M1120 129.901L1105.2 176.723L1085.27 169.427L1134.7 15.5708H1160.62L1210.05 169.427L1190.13 176.723L1175.65 129.901H1120ZM1147.77 39.0902L1125.45 111.826H1170.09L1147.77 39.0902Z" fill="black"/>
<path d="M1184.79 187.938L1169.55 138.612H1126.43L1110.86 187.938L1074.71 174.763L1128.61 6.96875H1167.15L1221.05 174.763L1184.79 187.938ZM1096.05 164.201L1099.75 165.507L1113.69 121.299H1182.18L1195.9 165.507L1199.49 164.201L1154.52 24.1728H1152.24L1181.74 120.428H1113.8L1143.31 24.1728H1141.02L1096.05 164.201ZM1137.1 103.224H1158.44L1147.77 68.4895L1137.1 103.224Z" fill="black"/>
<path d="M1307.4 172.803H1287.15V15.5708H1336.03C1372.51 15.5708 1386.78 35.497 1386.78 58.3631C1386.78 91.5735 1363.26 105.075 1341.26 105.075H1307.51V172.803H1307.4ZM1335.16 87.1091C1355.09 87.1091 1365.65 78.0716 1365.65 59.9964C1365.65 38.5458 1351.82 33.7548 1335.16 33.7548H1307.4V87.1091H1335.16Z" fill="black"/>
<path d="M1316 181.405H1278.54V6.96875H1336.03C1364.67 6.96875 1395.38 20.4707 1395.38 58.472C1395.38 96.6911 1368.16 113.895 1341.15 113.895H1316V181.405ZM1295.75 164.201H1298.69V96.5822H1341.15C1359.01 96.5822 1378.07 86.5647 1378.07 58.472C1378.07 36.3681 1363.15 24.2817 1336.03 24.2817H1295.75V164.201ZM1335.16 95.7111H1298.8V25.0439H1335.16C1367.5 25.0439 1374.25 43.9901 1374.25 59.8875C1374.25 82.6447 1359.99 95.7111 1335.16 95.7111ZM1316 78.5071H1335.16C1354.44 78.5071 1357.05 69.1428 1357.05 59.9964C1357.05 48.5633 1353.57 42.3568 1335.16 42.3568H1316V78.5071Z" fill="black"/>
<path d="M1488.37 172.803H1468.11V15.5708H1517C1553.48 15.5708 1567.75 35.497 1567.75 58.3631C1567.75 91.5735 1544.23 105.075 1522.23 105.075H1488.48V172.803H1488.37ZM1516.13 87.1091C1536.06 87.1091 1546.62 78.0716 1546.62 59.9964C1546.62 38.5458 1532.79 33.7548 1516.13 33.7548H1488.37V87.1091H1516.13Z" fill="black"/>
<path d="M1497.08 181.405H1459.62V6.96875H1517.11C1545.75 6.96875 1576.46 20.4707 1576.46 58.472C1576.46 96.6911 1549.23 113.895 1522.23 113.895H1497.08V181.405ZM1476.83 164.201H1479.77V96.5822H1522.23C1540.09 96.5822 1559.14 86.5647 1559.14 58.472C1559.14 36.3681 1544.23 24.2817 1517.11 24.2817H1476.83V164.201ZM1516.13 95.7111H1479.77V25.0439H1516.13C1548.47 25.0439 1555.22 43.9901 1555.22 59.8875C1555.22 82.6447 1541.07 95.7111 1516.13 95.7111ZM1497.08 78.5071H1516.24C1535.51 78.5071 1538.13 69.1428 1538.13 59.9964C1538.13 48.5633 1534.64 42.3568 1516.24 42.3568H1497.08V78.5071Z" fill="black"/>
<path d="M1647.67 15.5708H1745.77V33.6459H1667.92V80.6848H1732.16V98.7599H1667.92V154.619H1745.77V172.694H1647.67V15.5708Z" fill="black"/>
<path d="M1754.38 181.405H1639.07V6.96875H1754.38V42.3568H1676.52V72.1917H1740.77V107.58H1676.52V146.125H1754.38V181.405ZM1656.27 164.201H1737.06V163.33H1659.21V90.2668H1723.45V89.3957H1659.21V25.0439H1737.06V24.1728H1656.27V164.201Z" fill="black"/>
<path d="M1826.35 15.5708H1879.7C1905.95 15.5708 1926.74 27.9838 1926.74 58.3631C1926.74 77.636 1913.79 96.6911 1894.73 102.462L1933.39 166.161L1915.85 176.723L1875.68 105.511H1846.39V172.803H1826.13V15.5708H1826.35ZM1873.06 87.3269C1892.66 87.3269 1905.62 76.1116 1905.62 58.3631C1905.62 44.2079 1897.13 33.6459 1879.05 33.6459H1846.49V87.3269H1873.06Z" fill="black"/>
<path d="M1912.81 188.7L1870.78 114.113H1855.2V181.405H1817.75V6.96875H1879.81C1914.66 6.96875 1935.45 26.2416 1935.45 58.472C1935.45 78.3982 1924.13 97.1266 1907.36 106.491L1945.36 169.1L1912.81 188.7ZM1837.89 96.9089H1880.79L1919.01 164.745L1921.52 163.221L1881.56 97.4533L1892.23 94.2956C1906.93 89.8312 1918.03 74.4783 1918.03 58.472C1918.03 30.1615 1897.13 24.2817 1879.6 24.2817H1834.84V164.201H1837.78V96.9089H1837.89ZM1873.06 96.0378H1837.89V25.0439H1879.05C1900.39 25.0439 1914.22 38.1102 1914.22 58.3631C1914.22 80.9026 1897.67 96.0378 1873.06 96.0378ZM1855.1 78.7248H1873.06C1888.09 78.7248 1897.02 71.1028 1897.02 58.3631C1897.02 47.6922 1891.03 42.2479 1879.05 42.2479H1855.1V78.7248Z" fill="black"/>
<path d="M2094.86 11.6509L2113.92 21.5595L2062.96 112.044V172.694H2042.71V112.153L1991.97 21.6684L2011.02 11.7598L2052.94 92.6623L2094.86 11.6509Z" fill="black"/>
<path d="M2071.45 181.405H2034V114.331L1980.1 18.0751L2014.61 0L2052.83 73.8249L2091.16 0L2125.68 18.0751L2071.45 114.331V181.405ZM2051.2 164.201H2054.14V109.866L2101.83 25.1527L2098.35 23.3017L2052.72 111.282L2007.1 23.3017L2003.62 25.1527L2051.09 109.866V164.201H2051.2Z" fill="black"/>
</svg>
