<svg width="20" height="18" viewBox="0 0 20 18" fill="none" xmlns="http://www.w3.org/2000/svg">
<path d="M10.3436 13.7605C9.29016 14.4979 8.23674 15.3406 7.28868 16.078C7.39402 15.8673 7.39397 15.5513 7.49931 15.3406C7.81533 14.0765 8.13135 12.9178 8.55271 11.6537C8.55271 11.5484 8.65812 11.443 8.76346 11.3377C10.7649 9.2309 12.8717 7.01875 14.8731 4.91195C15.0838 4.70127 15.1892 4.49059 15.0839 4.17457C14.9785 3.85855 14.5571 3.75321 14.2411 3.96389C13.8197 4.17457 13.2931 4.49059 12.8718 4.70127C10.0276 6.28137 7.07797 7.86147 4.23379 9.44158C4.12845 9.44158 4.02316 9.44158 4.02316 9.44158C2.96976 9.02022 1.81104 8.49352 0.757638 7.96681C0.230937 7.75613 -0.0851603 7.33477 0.0201798 6.80807C0.0201798 6.28137 0.336252 5.86001 0.862953 5.75467C4.33918 4.59593 7.81533 3.43719 11.1862 2.38379C13.3984 1.6464 15.7159 0.909025 17.928 0.171644C18.3494 0.0663042 18.7708 0.066303 19.1922 0.382323C19.5082 0.698344 19.6134 1.11971 19.5081 1.64641C19.4028 1.96243 19.2975 2.27845 19.2975 2.69981C18.2441 7.22943 17.1907 11.6537 16.1373 16.1833C15.9266 17.1314 14.8732 17.4474 14.1358 16.8154C12.977 15.8673 11.8183 14.9193 10.6595 13.9712C10.4488 13.7605 10.3436 13.7605 10.3436 13.7605Z" fill="#FFF8D4"/>
<path d="M11.2916 6.70264C10.9756 7.01866 10.6596 7.33468 10.3435 7.6507C9.50083 8.59876 8.55277 9.54682 7.71005 10.3895C7.49936 10.6002 7.39397 10.7056 7.39397 10.9162C6.97261 12.391 6.5513 13.8658 6.12994 15.3405C6.12994 15.4459 6.12997 15.4459 6.02463 15.5512C5.91929 14.9192 5.70858 14.1818 5.60324 13.5497C5.39256 12.391 5.07646 11.3376 4.86578 10.1789C4.86578 10.0735 4.86589 9.96818 4.97123 9.96818C7.07803 9.02012 9.18483 7.86138 11.2916 6.70264C11.1863 6.70264 11.2916 6.70264 11.2916 6.70264Z" fill="#FFF8D4"/>
</svg>
