<svg width="21" height="17" viewBox="0 0 21 17" fill="none" xmlns="http://www.w3.org/2000/svg">
<path d="M17.8025 2.85886C18.6452 2.75352 19.2772 2.54284 20.0146 2.33216C19.8039 2.64818 19.5933 2.9642 19.2773 3.28022C18.9613 3.59624 18.6453 4.0176 18.2239 4.22828C18.1186 4.33362 18.0133 4.43896 18.0133 4.64964C18.0133 6.75645 17.5919 8.65257 16.6438 10.4434C16.1171 11.3914 15.485 12.2341 14.7476 13.0769C12.9568 14.973 10.8501 16.0264 8.3219 16.4477C6.00441 16.8691 3.89769 16.5531 1.68555 15.7104C1.15884 15.4997 0.632118 15.289 0.210757 14.973C0.105417 14.973 0 14.8676 0 14.7623C0 14.657 0.105417 14.657 0.210757 14.7623C2.21222 14.973 4.10829 14.4463 5.68839 13.2875C5.79373 13.2875 5.89905 13.1822 5.79371 13.1822C5.79371 13.0769 5.68842 13.1822 5.58308 13.0769C4.21366 12.8662 3.16026 12.2341 2.42288 10.9701C2.31753 10.7594 2.21225 10.654 2.21225 10.4434C2.10691 10.2327 2.10685 10.1273 2.42288 10.2327C2.84424 10.338 3.26557 10.2327 3.58159 10.2327C3.58159 10.2327 3.68701 10.2327 3.79235 10.2327C3.47633 10.1273 3.26557 10.022 3.05489 9.91665C1.58013 9.17927 0.842798 8.02053 0.737458 6.44043C0.737458 6.12441 0.737381 6.12441 1.0534 6.22975C1.36942 6.44043 1.79089 6.54577 2.21225 6.54577C2.31759 6.54577 2.31753 6.54577 2.42288 6.54577C2.42288 6.44043 2.31756 6.44043 2.31756 6.33509C1.26416 5.49237 0.842773 4.43897 0.842773 3.17488C0.842773 2.54284 1.05348 1.80546 1.26416 1.27876C1.3695 1.06808 1.47479 1.17342 1.47479 1.27876C1.79081 1.59478 2.10685 1.9108 2.42288 2.22682C3.58162 3.28022 4.84565 4.12294 6.32041 4.64964C7.37381 5.07101 8.42732 5.28169 9.58606 5.38703C9.79674 5.38703 9.79669 5.28169 9.79669 5.17635C9.69135 4.33362 9.79674 3.59624 10.1128 2.85886C11.2715 0.3307 14.537 -0.512023 16.6438 1.3841C16.8545 1.59478 17.1705 1.70012 17.4866 1.59478C18.1186 1.3841 18.7506 1.17342 19.3826 0.857399C19.488 0.857399 19.488 0.75206 19.5934 0.75206C19.6987 0.8574 19.5934 0.857399 19.5934 0.962739C19.2774 1.70012 18.856 2.33216 18.1186 2.85886C17.9079 2.75352 17.9079 2.75352 17.8025 2.85886Z" fill="#FFF8D4"/>
</svg>
