<svg width="179" height="435" viewBox="0 0 179 435" fill="none" xmlns="http://www.w3.org/2000/svg">
<path d="M177.137 384.658C175.72 382.079 173.016 380.532 170.312 380.404H169.925H169.797L141.21 380.275L159.238 369.832C159.366 369.703 159.495 369.703 159.624 369.574L159.881 369.445C162.199 368.027 163.745 365.449 163.745 362.484C163.745 357.972 160.01 354.233 155.503 354.233C153.829 354.233 152.284 354.749 150.996 355.522L133.226 365.836H127.303L126.916 350.623C127.045 348.818 126.53 347.013 125.5 345.338C122.796 340.825 116.872 339.407 112.365 342.115C109.404 343.919 107.858 347.013 107.858 350.236V350.752L108.245 365.836H71.2875V421.915H124.083L134.642 431.842C135.544 432.874 136.832 433.518 138.248 433.905C142.111 434.807 145.974 432.358 146.876 428.619C147.519 426.17 146.618 423.591 144.944 421.915L136.316 413.794L159.238 420.368C160.783 420.884 162.457 421.013 164.131 420.626C168.509 419.466 171.213 414.954 170.054 410.571C169.282 407.734 167.093 405.543 164.517 404.769L137.733 397.034L169.539 397.292C171.084 397.421 172.758 397.034 174.175 396.261C177.909 393.682 179.326 388.654 177.137 384.658Z" fill="#CAEFFF"/>
<path d="M95.2388 421.915H0.721558V365.836V-150.484H56.479V306.017V365.836H95.2388V421.915Z" fill="white"/>
<path d="M95.4963 422.173H0.463989V-150.742H56.7365V365.707H95.4963V422.173ZM0.979067 421.657H95.11V366.093H56.3502V-150.355H0.979067V421.657Z" fill="black"/>
<path d="M139.922 434.549C139.407 434.549 138.763 434.42 138.119 434.292C136.703 433.905 135.286 433.131 134.256 432.1L123.826 422.302H0.206421V-151H56.994V365.449H107.601L107.214 350.365C107.214 346.885 109.017 343.662 111.979 341.857C116.743 339.021 122.924 340.439 125.757 345.209C126.787 346.885 127.303 348.818 127.174 350.752L127.56 365.449H132.84L150.867 355.007C152.155 354.233 153.7 353.846 155.246 353.846C160.01 353.846 164.002 357.714 164.002 362.613C164.002 365.449 162.714 368.027 160.396 369.703L159.624 370.09C159.495 370.219 159.366 370.219 159.238 370.219L142.755 379.759L170.569 379.888C173.402 380.146 175.978 381.822 177.394 384.271C178.553 386.334 178.811 388.654 178.167 390.975C177.523 393.166 176.106 395.1 174.046 396.26C172.501 397.163 170.827 397.421 169.153 397.421L140.823 397.292L164.775 404.125C167.479 405.156 169.539 407.348 170.183 410.184C170.827 412.504 170.441 414.825 169.282 416.759C168.123 418.821 166.191 420.239 163.873 420.755C162.199 421.142 160.396 421.142 158.722 420.497L137.733 414.438L145.33 421.529C147.004 423.333 147.648 425.912 147.133 428.361C146.489 432.1 143.399 434.549 139.922 434.549ZM1.10781 421.4H124.212L134.9 431.455C135.801 432.487 136.96 433.131 138.248 433.389C141.854 434.292 145.459 431.971 146.232 428.361C146.747 426.041 146.103 423.72 144.429 422.044L144.171 421.786L134.385 412.633L159.109 419.724C160.654 420.239 162.199 420.368 163.744 419.982C165.805 419.466 167.479 418.177 168.509 416.372C169.539 414.567 169.925 412.504 169.41 410.442C168.767 407.863 166.835 405.801 164.131 404.898L163.744 404.769L133.999 396.26L169.282 396.518C170.827 396.647 172.372 396.26 173.66 395.487C175.463 394.456 176.75 392.78 177.394 390.717C177.909 388.654 177.652 386.592 176.622 384.787C175.334 382.466 172.887 380.919 170.183 380.79H169.668L139.407 380.532L158.851 369.316C158.98 369.316 159.109 369.188 159.109 369.188L159.366 369.059C161.555 367.641 162.972 365.191 162.972 362.484C162.972 358.229 159.495 354.62 155.117 354.62C153.572 354.62 152.155 355.007 150.867 355.909L150.481 356.167L132.968 366.222H126.53L126.144 350.494C126.272 348.689 125.757 346.885 124.856 345.466C122.281 341.212 116.615 339.794 112.365 342.501C109.661 344.177 107.987 347.013 107.987 350.236L108.373 366.351H56.0927V-150.098H1.10781V421.4Z" fill="black"/>
<path d="M150.353 388.783C150.224 388.783 150.095 388.654 150.095 388.525V380.275C150.095 380.146 150.224 380.017 150.353 380.017C150.482 380.017 150.611 380.146 150.611 380.275V388.525C150.611 388.654 150.482 388.783 150.353 388.783Z" fill="black"/>
<path d="M154.087 388.783C153.958 388.783 153.829 388.654 153.829 388.525V380.275C153.829 380.146 153.958 380.017 154.087 380.017C154.216 380.017 154.345 380.146 154.345 380.275V388.525C154.216 388.654 154.216 388.783 154.087 388.783Z" fill="black"/>
<path d="M115.584 389.557C113.782 389.557 112.108 389.17 110.562 388.139C110.434 388.01 110.434 387.881 110.434 387.752C110.562 387.623 110.691 387.623 110.82 387.623C115.584 390.588 122.152 388.525 125.5 382.982C126.272 381.693 126.916 380.146 127.174 378.728C127.174 378.599 127.303 378.47 127.431 378.599C127.56 378.599 127.689 378.728 127.56 378.857C127.303 380.404 126.659 381.951 125.757 383.369C123.568 387.236 119.448 389.557 115.584 389.557Z" fill="black"/>
<path d="M127.174 373.442C126.916 373.442 126.659 373.184 126.659 372.926L126.272 350.623C126.401 348.818 125.886 347.014 124.985 345.595C123.697 343.533 121.765 342.115 119.319 341.47C117.001 340.954 114.554 341.341 112.494 342.501C109.79 344.177 108.116 347.013 108.116 350.236V350.623L108.502 365.836C108.502 366.093 108.245 366.351 107.987 366.351C107.729 366.351 107.472 366.093 107.472 365.836L107.086 349.721C107.214 346.369 109.017 343.404 111.85 341.728C116.615 338.892 122.796 340.31 125.628 345.08C126.659 346.756 127.174 348.689 127.045 350.623L127.431 372.926C127.689 373.184 127.431 373.442 127.174 373.442Z" fill="black"/>
</svg>
