<svg width="875" height="233" viewBox="0 0 875 233" fill="none" xmlns="http://www.w3.org/2000/svg">
<path d="M2.03164 181.467C3.48434 178.826 6.25767 177.242 9.03102 177.11H9.42719H9.55931L38.8775 176.978L20.3886 166.282C20.2565 166.15 20.1244 166.15 19.9923 166.018L19.7283 165.886C17.3511 164.434 15.7663 161.793 15.7663 158.756C15.7663 154.135 19.5961 150.306 24.2184 150.306C25.9352 150.306 27.52 150.834 28.8406 151.626L47.0655 162.189H53.1404L53.5366 146.609C53.4046 144.76 53.9328 142.911 54.9893 141.195C57.7626 136.574 63.8376 135.121 68.4598 137.894C71.4973 139.742 73.0821 142.911 73.0821 146.212V146.741L72.6859 162.189H1166.97V219.626H56.3099L45.4807 229.793C44.5563 230.85 43.2356 231.51 41.7829 231.906C37.821 232.83 33.8591 230.321 32.9347 226.492C32.2743 223.983 33.1988 221.343 34.9156 219.626L43.7639 211.308L20.2565 218.042C18.6717 218.57 16.9549 218.702 15.238 218.306C10.7479 217.117 7.97455 212.496 9.16313 208.007C9.95552 205.102 12.2006 202.857 14.8419 202.065L42.3112 194.143L9.69134 194.407C8.10657 194.539 6.38977 194.143 4.93707 193.35C1.10721 190.71 -0.345513 185.56 2.03164 181.467Z" fill="#E1F7D7"/>
<path d="M85.8923 219.626H1239.47V162.189V0.837311H1182.16V100.791V162.189H85.8923V219.626Z" fill="white"/>
<path d="M85.6281 161.925H1181.89V0.573242H1239.6V219.758H85.6281V161.925ZM1239.21 1.10139H1182.42V162.453H86.1564V219.362H1239.21V1.10139Z" fill="black"/>
<path d="M32.5383 226.492C32.0101 223.983 32.6704 221.475 34.3873 219.494L42.1791 212.232L20.6526 218.438C18.9357 219.098 17.0868 219.098 15.37 218.702C12.9929 218.042 11.144 216.589 9.82338 214.609C8.63481 212.496 8.2386 210.119 8.89892 207.875C9.6913 204.97 11.6723 202.725 14.4456 201.669L39.0095 194.671L9.95541 194.803C8.23858 194.935 6.52176 194.539 4.937 193.614C2.82397 192.426 1.37125 190.578 0.71093 188.201C0.0506099 185.956 0.314706 183.447 1.50328 181.335C2.95599 178.694 5.59733 177.11 8.50274 176.845L37.0285 176.713L20.1244 166.943C19.9923 166.943 19.8603 166.811 19.7282 166.811L18.9358 166.414C16.5586 164.698 15.238 162.057 15.238 159.152C15.238 154.267 19.1999 150.174 24.2183 150.174C25.8031 150.174 27.3879 150.57 28.7085 151.362L47.1975 162.057H52.6121L53.0083 147.005C52.8762 145.024 53.4045 143.043 54.461 141.327C57.3664 136.442 63.7055 134.989 68.5919 137.894C71.6294 139.742 73.4782 143.043 73.4782 146.609L73.082 162.057H1181.5V0.441193H1239.74V220.154H56.442L45.7447 230.189C44.6882 231.246 43.3676 232.038 41.7828 232.434C41.1225 232.566 40.5943 232.698 39.934 232.698C36.6324 232.566 33.3307 230.057 32.5383 226.492ZM1238.94 1.36548H1182.68V162.717H72.2897L72.6858 146.212C72.6858 142.911 70.969 140.007 68.1956 138.29C63.8375 135.649 58.0268 136.97 55.3855 141.327C54.461 142.911 53.9328 144.628 54.0648 146.476L53.6686 162.585H47.0654L29.1047 152.286L28.7085 152.022C27.3879 151.23 25.9352 150.702 24.3504 150.702C19.9923 150.702 16.2945 154.267 16.2945 158.756C16.2945 161.529 17.6151 164.038 19.9923 165.49L20.2564 165.622C20.3885 165.622 20.3885 165.754 20.5205 165.754L40.4622 177.242L9.42713 177.506H8.89892C6.12557 177.638 3.61636 179.09 2.29571 181.599C1.2392 183.447 0.975026 185.56 1.50328 187.673C2.03154 189.785 3.48428 191.502 5.33317 192.558C6.65381 193.35 8.23861 193.614 9.82338 193.614L46.0089 193.35L15.5021 202.065L15.1059 202.197C12.4647 202.989 10.3516 205.102 9.69127 207.875C9.16301 209.987 9.42716 212.1 10.6157 213.949C11.6722 215.797 13.3891 217.117 15.5021 217.646C17.0869 218.042 18.6716 217.91 20.2564 217.382L45.6127 210.119L35.5759 219.494L35.3117 219.758C33.5949 221.475 32.9345 223.851 33.4628 226.228C34.3872 229.925 37.953 232.17 41.6508 231.378C42.9714 231.114 44.16 230.453 45.0844 229.397L56.0458 219.098H1238.94V1.36548Z" fill="black"/>
<path d="M29.3689 185.692C29.5009 185.692 29.633 185.56 29.633 185.428V176.978C29.633 176.846 29.5009 176.713 29.3689 176.713C29.2368 176.713 29.1047 176.846 29.1047 176.978V185.428C29.1047 185.56 29.2368 185.692 29.3689 185.692Z" fill="black"/>
<path d="M25.6711 185.692C25.8032 185.692 25.9352 185.56 25.9352 185.428V176.978C25.9352 176.846 25.8032 176.713 25.6711 176.713C25.5391 176.713 25.407 176.846 25.407 176.978V185.428C25.407 185.56 25.5391 185.692 25.6711 185.692Z" fill="black"/>
<path d="M65.0262 186.352C66.8751 186.352 68.5918 185.956 70.1766 184.9C70.3087 184.768 70.3087 184.636 70.3087 184.504C70.1767 184.372 70.0446 184.372 69.9125 184.372C65.0262 187.409 58.2909 185.296 54.8572 179.618C54.0648 178.298 53.4045 176.713 53.1404 175.261C53.1404 175.129 53.0083 174.997 52.8763 175.129C52.7442 175.129 52.6122 175.261 52.7442 175.393C53.0084 176.978 53.6686 178.562 54.5931 180.014C56.9702 184.108 61.0642 186.352 65.0262 186.352Z" fill="black"/>
<path d="M53.1404 169.847C53.4045 169.847 53.6686 169.583 53.6686 169.319L54.0648 146.477C53.9328 144.628 54.461 142.779 55.3855 141.327C56.7061 139.214 58.687 137.762 61.1962 137.102C63.5734 136.574 66.0826 136.97 68.1956 138.158C70.9689 139.875 72.6858 142.779 72.6858 146.08V146.477L72.2896 162.057C72.2896 162.321 72.5537 162.585 72.8178 162.585C73.082 162.585 73.3461 162.321 73.3461 162.057L73.7423 145.552C73.6102 142.119 71.7613 139.082 68.8559 137.366C63.9696 134.461 57.6305 135.913 54.7251 140.799C53.6686 142.515 53.1403 144.496 53.2724 146.477L52.8762 169.319C52.7441 169.715 52.8762 169.847 53.1404 169.847Z" fill="black"/>
</svg>
