<svg width="299" height="95" viewBox="0 0 299 95" fill="none" xmlns="http://www.w3.org/2000/svg">
<path d="M215.088 81.7531H244.154L254.896 91.846C255.78 92.8553 257.044 93.4861 258.308 93.8646C261.973 94.7478 265.637 92.4768 266.396 88.8181C266.901 86.5472 266.269 84.1501 264.626 82.51L264.374 82.2577L254.516 72.9217L279.538 80.113C281.055 80.6176 282.698 80.7438 284.214 80.3653C286.236 79.8606 288.005 78.599 289.016 76.7066C290.027 74.9403 290.407 72.7956 289.901 70.777C289.269 68.1276 287.247 66.109 284.593 65.2258L284.214 65.0997L254.011 56.3945L289.648 56.6468C291.165 56.773 292.681 56.3945 294.071 55.6375C295.967 54.6282 297.231 52.862 297.736 50.8434C298.242 48.8248 297.989 46.68 296.978 44.9138C295.588 42.5167 293.187 41.0027 290.407 40.8766H289.901L274.231 40.7504V48.5725C274.231 48.6986 274.104 48.8248 273.978 48.8248C273.852 48.8248 273.725 48.6986 273.725 48.5725V40.7504H270.566V48.5725C270.566 48.6986 270.44 48.8248 270.313 48.8248C270.187 48.8248 270.06 48.6986 270.06 48.5725V40.7504L259.319 40.6243L279.033 29.2697C279.159 29.2697 279.286 29.1435 279.286 29.1435L279.538 29.0173C281.813 27.5034 283.203 25.1063 283.203 22.4569C283.203 18.1674 279.665 14.6349 275.368 14.6349C273.852 14.6349 272.335 15.0134 271.071 15.8965L270.692 16.1488L253 26.3679H247.313L247.44 32.9284C247.44 33.1807 247.187 33.433 246.934 33.433C246.681 33.433 246.429 33.1807 246.429 32.9284L246.049 10.4715C246.176 8.70526 245.67 6.93899 244.659 5.29889C244.533 5.04656 244.28 4.79424 244.154 4.54191L244.027 4.41575C243.901 4.16343 243.775 4.03727 243.522 3.78494C240.994 1.13554 237.203 0.252406 233.791 1.38786C233.791 1.38786 233.791 1.38786 233.665 1.38786C233.412 1.51403 233.159 1.51403 232.907 1.64019C232.907 1.64019 232.78 1.64019 232.78 1.76635C232.527 1.89251 232.275 2.01867 232.022 2.271C229.242 3.9111 227.599 6.81283 227.599 10.093L227.978 26.2418H227.473H214.835V81.7531H215.088ZM230.126 47.8155C230.253 47.6893 230.379 47.6893 230.505 47.6893C235.308 50.5911 242.005 48.5725 245.418 43.0213C246.302 41.6335 246.808 40.2458 247.187 38.7318C247.187 38.6057 247.313 38.4795 247.44 38.6057C247.566 38.6057 247.692 38.7318 247.566 38.858C247.313 40.3719 246.681 41.8859 245.797 43.3998C243.396 47.3108 239.225 49.5818 235.308 49.5818C233.538 49.5818 231.769 49.0771 230.253 48.194C230.126 48.0678 230.126 47.9417 230.126 47.8155Z" fill="#CAEFFF"/>
<path d="M214.582 26.2417H0V81.753H214.582V26.2417Z" fill="white"/>
<path d="M215.088 26.2417H214.835V81.753H215.088V26.2417Z" fill="black"/>
<path d="M214.835 26.2417H214.582V81.753H214.835V26.2417Z" fill="black"/>
<path d="M227.978 5.42487C228.104 5.29871 228.104 5.17255 228.231 5.04639C228.104 5.17255 228.104 5.29871 227.978 5.42487Z" fill="black"/>
<path d="M228.61 4.4156C228.736 4.28943 228.736 4.16327 228.863 4.03711C228.863 4.16327 228.736 4.28943 228.61 4.4156Z" fill="black"/>
<path d="M229.368 3.40632C229.495 3.28016 229.621 3.15399 229.621 3.02783C229.621 3.15399 229.495 3.28016 229.368 3.40632Z" fill="black"/>
<path d="M227.093 7.82203C227.093 7.69587 227.22 7.44354 227.22 7.31738C227.22 7.56971 227.22 7.69587 227.093 7.82203Z" fill="black"/>
<path d="M227.473 6.68653C227.473 6.56037 227.599 6.30805 227.599 6.18188C227.599 6.30805 227.599 6.43421 227.473 6.68653Z" fill="black"/>
<path d="M230.379 2.52332C230.505 2.39716 230.632 2.39716 230.632 2.271C230.505 2.271 230.505 2.39716 230.379 2.52332Z" fill="black"/>
<path d="M215.088 25.4848V25.7371H227.22V25.3586H0V25.4848H215.088Z" fill="black"/>
<path d="M254.264 92.4768C255.275 93.6123 256.665 94.3692 258.055 94.7477C258.687 94.8739 259.192 95 259.824 95C263.363 95 266.522 92.603 267.28 89.0704C267.912 86.5472 267.154 84.0239 265.511 82.2577L257.802 75.0664L279.033 81.1222C280.676 81.753 282.445 81.753 284.214 81.3745C286.489 80.7437 288.385 79.356 289.648 77.3374C290.912 75.3188 291.165 72.9217 290.659 70.6508C289.901 67.8752 287.879 65.6043 285.099 64.595L260.835 57.6561L289.396 57.7823C291.165 57.9084 292.808 57.5299 294.324 56.6468C296.346 55.5113 297.863 53.6189 298.494 51.348C299.126 49.0771 298.874 46.68 297.736 44.6614C296.346 42.1382 293.819 40.4981 290.912 40.2457L262.857 40.1196L279.538 30.5313C279.665 30.5313 279.791 30.4051 279.918 30.2789L280.676 29.9004C282.951 28.2603 284.341 25.6109 284.341 22.7092C284.341 17.7889 280.423 13.8779 275.494 13.8779C273.978 13.8779 272.462 14.2564 271.071 15.0133L252.874 25.4848H247.566L247.187 10.5977L247.44 25.8633H253L270.945 15.518C272.209 14.6348 273.852 14.1302 275.494 14.1302C280.17 14.1302 283.835 17.9151 283.835 22.4569C283.835 25.3586 282.319 28.008 280.044 29.522L279.791 29.6481C279.665 29.7743 279.538 29.7743 279.412 29.9004L261.214 40.3719H270.187C270.187 40.2457 270.313 40.1196 270.44 40.1196C270.566 40.1196 270.692 40.2457 270.692 40.3719H273.852C273.852 40.2457 273.978 40.1196 274.104 40.1196C274.231 40.1196 274.357 40.2457 274.357 40.3719L290.027 40.4981H290.154H290.533C293.313 40.6242 295.967 42.1382 297.483 44.7876C299.758 48.8247 298.368 53.8712 294.324 56.1421C292.808 57.0253 291.291 57.2776 289.648 57.1514L257.549 56.8991L284.593 64.595C287.247 65.4781 289.522 67.6229 290.154 70.5246C291.291 74.9403 288.637 79.4821 284.088 80.7437C282.445 81.1222 280.676 81.1222 279.159 80.4914L256.033 73.931L264.753 82.1315C266.522 83.8978 267.28 86.421 266.648 88.9443C265.764 92.8553 261.846 95.2524 257.929 94.3692C256.538 93.9908 255.275 93.2338 254.264 92.3506L243.648 82.3838H214.835V82.6362H0V82.8885H243.775L254.264 92.4768Z" fill="black"/>
<path d="M233.159 1.76624C233.412 1.64008 233.665 1.51392 233.918 1.51392C233.665 1.51392 233.412 1.64008 233.159 1.76624Z" fill="black"/>
<path d="M273.852 40.8765V40.3718H270.692V40.8765H273.852Z" fill="black"/>
<path d="M243.648 3.91089C243.775 4.03705 244.027 4.28937 244.154 4.5417C244.027 4.28937 243.901 4.03705 243.648 3.91089Z" fill="black"/>
<path d="M290.027 41.0026H290.533C293.313 41.1287 295.714 42.6427 297.104 45.0398C298.115 46.9322 298.368 48.9508 297.863 50.9694C297.357 52.988 295.967 54.6281 294.198 55.7635C292.808 56.5205 291.291 56.899 289.775 56.7728L254.011 56.3943L283.962 64.9734L284.341 65.0995C286.994 65.8565 289.016 68.0012 289.648 70.6506C290.154 72.6692 289.901 74.814 288.764 76.5803C287.753 78.3465 285.984 79.7343 283.962 80.239C282.445 80.6174 280.802 80.6175 279.286 79.9866L254.264 72.7954L264.121 82.1314L264.374 82.3837C266.016 84.0238 266.775 86.4209 266.143 88.6918C265.258 92.3505 261.593 94.6214 258.055 93.7383C256.791 93.486 255.654 92.729 254.643 91.7197L243.901 81.6267H214.835V82.1314H243.901L254.516 92.0982C255.401 93.1075 256.665 93.8645 258.181 94.1168C262.099 94.9999 266.016 92.6028 266.901 88.6918C267.533 86.1686 266.648 83.6453 265.005 81.8791L256.286 73.6785L279.412 80.239C280.929 80.7436 282.571 80.8698 284.341 80.4913C288.764 79.3558 291.544 74.814 290.407 70.2722C289.648 67.3704 287.5 65.2257 284.846 64.3425L257.802 56.6467L289.901 56.899C291.418 57.0252 293.06 56.6467 294.577 55.8897C298.621 53.6188 300.011 48.5723 297.736 44.5351C296.22 41.8857 293.566 40.3718 290.786 40.2456H290.407H290.28L274.357 40.3718V40.8764L290.027 41.0026Z" fill="black"/>
<path d="M253.126 26.2417L270.819 16.0226L271.198 15.7702C272.462 14.8871 273.978 14.5086 275.495 14.5086C279.791 14.5086 283.33 18.0411 283.33 22.3307C283.33 24.9801 281.94 27.5033 279.665 28.8911L279.412 29.0172C279.286 29.0172 279.159 29.1434 279.159 29.1434L259.445 40.498L270.187 40.6241V40.3718H261.214L279.412 29.9004C279.538 29.7742 279.665 29.7742 279.791 29.6481L280.044 29.5219C282.319 28.0079 283.835 25.4847 283.835 22.4568C283.835 17.7888 280.044 14.1301 275.495 14.1301C273.852 14.1301 272.209 14.6348 270.945 15.5179L253 25.8632H247.44V26.3678H253.126V26.2417Z" fill="black"/>
<path d="M246.176 10.4715C246.302 8.57904 245.797 6.93893 244.786 5.29883C245.797 6.81277 246.176 8.57904 246.176 10.4715Z" fill="black"/>
<path d="M232.148 2.27101C232.401 2.14484 232.654 2.01868 232.907 1.76636C232.78 2.01868 232.527 2.14484 232.148 2.27101Z" fill="black"/>
<path d="M244.28 4.54175C244.407 4.79407 244.659 5.0464 244.786 5.29872C244.659 5.0464 244.533 4.79407 244.28 4.54175Z" fill="black"/>
<path d="M243.648 3.7849C242.385 2.52328 240.868 1.64015 239.099 1.1355C237.33 0.757012 235.56 0.757012 233.918 1.38782C237.33 0.252364 241.121 1.1355 243.648 3.7849Z" fill="black"/>
<path d="M227.852 10.093V10.4715L228.231 25.7371C228.231 25.9894 227.978 26.2418 227.725 26.2418H228.231L227.852 10.093Z" fill="black"/>
<path d="M227.725 26.2417C227.473 26.2417 227.22 25.9894 227.22 25.7371H214.962V26.2417H227.725Z" fill="black"/>
<path d="M214.582 25.9893H0V26.2416H214.582V25.9893Z" fill="black"/>
<path d="M214.582 81.7529H0V82.0052H214.582V81.7529Z" fill="black"/>
<path d="M214.835 25.7369H215.088V25.4846H0V25.7369H214.835Z" fill="black"/>
<path d="M0 82.2576V82.5099H215.088V82.2576H214.835H0Z" fill="black"/>
<path d="M215.088 81.7529H214.835V82.2576H215.088V81.7529Z" fill="black"/>
<path d="M215.088 25.7371H214.835V26.2417H215.088V25.7371Z" fill="black"/>
<path d="M214.582 82.0052H0V82.2576H214.835V81.7529H214.582V82.0052Z" fill="black"/>
<path d="M214.582 25.9894V26.2417H214.835V25.7371H0V25.9894H214.582Z" fill="black"/>
<path d="M270.44 48.9508C270.566 48.9508 270.692 48.8247 270.692 48.6985V40.8765H270.187V48.6985C270.187 48.8247 270.313 48.9508 270.44 48.9508Z" fill="black"/>
<path d="M270.692 40.3717C270.692 40.2455 270.566 40.1194 270.44 40.1194C270.313 40.1194 270.187 40.2455 270.187 40.3717H270.692Z" fill="black"/>
<path d="M270.187 40.8765H270.692V40.3718H270.187V40.8765Z" fill="black"/>
<path d="M274.104 48.9508C274.231 48.9508 274.357 48.8247 274.357 48.6985V40.8765H273.852V48.6985C273.852 48.8247 273.978 48.9508 274.104 48.9508Z" fill="black"/>
<path d="M274.357 40.3717C274.357 40.2455 274.231 40.1194 274.104 40.1194C273.978 40.1194 273.852 40.2455 273.852 40.3717H274.357Z" fill="black"/>
<path d="M274.357 40.8765V40.3718H273.852V40.8765H274.357Z" fill="black"/>
<path d="M235.308 49.5816C239.225 49.5816 243.396 47.3107 245.797 43.3996C246.681 42.0118 247.313 40.4979 247.566 38.8578C247.566 38.7316 247.566 38.6055 247.44 38.6055C247.313 38.6055 247.187 38.6055 247.187 38.7316C246.934 40.2456 246.302 41.7595 245.418 43.0211C242.005 48.5723 235.308 50.5909 230.505 47.6891C230.379 47.563 230.253 47.6891 230.126 47.8153C230 47.9415 230.126 48.0676 230.253 48.1938C231.769 49.2031 233.538 49.5816 235.308 49.5816Z" fill="black"/>
<path d="M227.725 6.18183C227.852 5.92951 227.978 5.67719 228.104 5.55103C227.852 5.67719 227.725 5.92951 227.725 6.18183Z" fill="black"/>
<path d="M228.863 4.03706C228.989 3.78474 229.242 3.65857 229.368 3.40625C229.242 3.65857 229.115 3.78474 228.863 4.03706Z" fill="black"/>
<path d="M228.231 5.04634C228.357 4.79401 228.484 4.66785 228.61 4.41553C228.484 4.66785 228.357 4.79401 228.231 5.04634Z" fill="black"/>
<path d="M226.967 8.57899C226.967 8.32667 227.093 8.07435 227.093 7.82202C227.093 8.07435 227.093 8.32667 226.967 8.57899Z" fill="black"/>
<path d="M229.747 3.02778C230 2.77546 230.126 2.6493 230.379 2.39697C230.126 2.6493 229.874 2.90162 229.747 3.02778Z" fill="black"/>
<path d="M227.22 7.31728C227.346 7.06495 227.346 6.81263 227.473 6.5603C227.473 6.81263 227.346 7.06495 227.22 7.31728Z" fill="black"/>
<path d="M230.632 2.27089C231.011 2.01856 231.264 1.76624 231.643 1.51392C231.39 1.76624 231.011 1.8924 230.632 2.27089Z" fill="black"/>
<path d="M226.841 10.093C226.841 9.71455 226.841 9.46223 226.967 9.08374C226.967 9.2099 226.967 9.33606 226.967 9.58839L227.346 25.3586L226.841 10.093Z" fill="black"/>
<path d="M233.033 1.89252C233.033 1.89252 233.159 1.89252 233.159 1.76636C233.159 1.76636 233.033 1.76636 233.033 1.89252Z" fill="black"/>
<path d="M244.154 4.41553L244.28 4.54169L244.154 4.41553Z" fill="black"/>
<path d="M247.06 33.3068C247.313 33.3068 247.566 33.0544 247.566 32.8021L247.44 26.2417H246.555L246.176 10.4714L246.555 32.9283C246.555 33.1806 246.681 33.3068 247.06 33.3068Z" fill="black"/>
<path d="M227.725 25.737L227.346 10.5976V10.0929C227.346 6.81272 228.989 3.78483 231.896 1.8924C236.445 -0.88316 242.385 0.504623 245.165 5.04645C246.176 6.68656 246.681 8.57899 246.555 10.3453L246.934 25.737H247.313L247.06 10.4714C247.187 8.45283 246.681 6.5604 245.544 4.79413C242.637 -2.5928e-05 236.445 -1.51397 231.643 1.38776C231.264 1.64008 230.885 1.8924 230.632 2.14473C230.505 2.27089 230.379 2.27089 230.379 2.39705C230.126 2.52321 230 2.77554 229.747 3.02786C229.621 3.15402 229.495 3.28019 229.495 3.40635C229.368 3.65867 229.115 3.78483 228.989 4.03716C228.863 4.16332 228.863 4.28948 228.736 4.41564C228.61 4.66797 228.484 4.79413 228.357 5.04645C228.231 5.17262 228.231 5.29878 228.104 5.42494C227.978 5.67726 227.852 5.92959 227.725 6.05575C227.599 6.18191 227.599 6.30807 227.599 6.5604C227.473 6.81272 227.473 7.06505 227.346 7.31737C227.346 7.44353 227.22 7.69586 227.22 7.82202C227.22 8.07434 227.093 8.32667 227.093 8.57899C227.093 8.70515 227.093 8.95748 227.093 9.08364C227.093 9.33596 227.093 9.71445 226.967 10.0929L227.346 25.3585V25.8632H227.725V25.737Z" fill="black"/>
<path d="M246.681 10.4713C246.808 8.70504 246.302 6.81261 245.291 5.1725C242.511 0.630669 236.571 -0.757113 232.022 2.01845C229.115 3.78472 227.473 6.93877 227.473 10.219V10.7236L227.852 25.8631H227.346C227.346 26.1154 227.599 26.3677 227.852 26.3677C228.104 26.3677 228.357 26.1154 228.357 25.8631L227.978 10.5975V10.219C227.978 7.06493 229.621 4.16321 232.401 2.39694C232.654 2.27078 232.907 2.14461 233.159 1.89229C233.159 1.89229 233.286 1.89229 233.286 1.76613C233.538 1.63997 233.791 1.5138 234.044 1.5138C234.044 1.5138 234.044 1.5138 234.17 1.5138C235.813 0.882994 237.582 0.882994 239.352 1.26148C241.121 1.63997 242.637 2.64926 243.901 3.91088C244.027 4.03704 244.28 4.28937 244.407 4.54169L244.533 4.66785C244.659 4.92018 244.912 5.1725 245.038 5.42483C245.923 6.93877 246.429 8.70504 246.429 10.5975L246.808 26.3677H247.692V25.8631H247.313L246.681 10.4713Z" fill="black"/>
</svg>
