<svg version="1.2" xmlns="http://www.w3.org/2000/svg" viewBox="0 0 1240 235" width="1240" height="235">
	<title>right-svg</title>
	<style>
		.s0 { fill: #e1f7d7 } 
		.s1 { fill: #ffffff } 
		.s2 { fill: #000000 } 
	</style>
	<path id="Layer" class="s0" d="m2 181.5c1.5-2.7 4.3-4.3 7-4.4h0.4 0.2l29.3-0.1-18.5-10.7c-0.1-0.1-0.3-0.1-0.4-0.3l-0.3-0.1c-2.3-1.5-3.9-4.1-3.9-7.1 0-4.7 3.8-8.5 8.4-8.5 1.7 0 3.3 0.5 4.6 1.3l18.3 10.6h6l0.4-15.6c-0.1-1.8 0.4-3.7 1.5-5.4 2.8-4.6 8.8-6.1 13.5-3.3 3 1.8 4.6 5 4.6 8.3v0.5l-0.4 15.5h1094.3v57.4h-1110.7l-10.8 10.2c-0.9 1.1-2.3 1.7-3.7 2.1-4 0.9-7.9-1.6-8.9-5.4-0.6-2.5 0.3-5.2 2-6.9l8.9-8.3-23.5 6.7c-1.6 0.6-3.3 0.7-5.1 0.3-4.5-1.2-7.2-5.8-6-10.3 0.8-2.9 3-5.1 5.6-5.9l27.5-8-32.6 0.3c-1.6 0.1-3.3-0.3-4.8-1.1-3.8-2.6-5.2-7.7-2.9-11.8z"/>
	<path id="Layer" class="s1" d="m85.9 162.2h1096.3v-61.4-100h57.3v161.4 57.4h-1153.6z"/>
	<path id="Layer" fill-rule="evenodd" class="s2" d="m85.6 161.9h1096.3v-161.3h57.7v219.2h-1154zm1153.6-160.9h-56.8v161.4h-1096.2v56.9h1153z"/>
	<path id="Layer" fill-rule="evenodd" class="s2" d="m32.5 226.5c-0.5-2.5 0.2-5 1.9-7l7.8-7.3-21.5 6.2c-1.8 0.7-3.6 0.7-5.3 0.3-2.4-0.7-4.3-2.1-5.6-4.1-1.2-2.1-1.6-4.5-0.9-6.7 0.8-2.9 2.8-5.2 5.5-6.2l24.6-7-29 0.1c-1.8 0.1-3.5-0.3-5.1-1.2-2.1-1.2-3.5-3-4.2-5.4-0.6-2.2-0.4-4.8 0.8-6.9 1.5-2.6 4.1-4.2 7-4.5l28.5-0.1-16.9-9.8c-0.1 0-0.2-0.1-0.4-0.1l-0.8-0.4c-2.3-1.7-3.7-4.3-3.7-7.2 0-4.9 4-9 9-9 1.6 0 3.2 0.4 4.5 1.2l18.5 10.7h5.4l0.4-15.1c-0.1-2 0.4-4 1.5-5.7 2.9-4.9 9.2-6.3 14.1-3.4 3 1.8 4.9 5.1 4.9 8.7l-0.4 15.5h1108.4v-161.7h58.2v219.8h-1183.3l-10.7 10c-1 1-2.3 1.8-3.9 2.2-0.7 0.2-1.2 0.3-1.9 0.3-3.3-0.1-6.6-2.6-7.4-6.2zm1206.4-225.1h-56.2v161.3h-1110.4l0.4-16.5c0-3.3-1.7-6.2-4.5-7.9-4.4-2.7-10.2-1.3-12.8 3-0.9 1.6-1.5 3.3-1.3 5.2l-0.4 16.1h-6.6l-18-10.3-0.4-0.3c-1.3-0.8-2.8-1.3-4.3-1.3-4.4 0-8.1 3.6-8.1 8.1 0 2.7 1.3 5.2 3.7 6.7l0.3 0.1c0.1 0 0.1 0.2 0.2 0.2l20 11.4-31.1 0.3h-0.5c-2.8 0.1-5.3 1.6-6.6 4.1-1.1 1.8-1.3 4-0.8 6.1 0.5 2.1 2 3.8 3.8 4.9 1.4 0.7 2.9 1 4.5 1l36.2-0.3-30.5 8.8-0.4 0.1c-2.6 0.8-4.7 2.9-5.4 5.7-0.5 2.1-0.3 4.2 0.9 6 1.1 1.9 2.8 3.2 4.9 3.7 1.6 0.4 3.2 0.3 4.8-0.2l25.3-7.3-10 9.4-0.3 0.3c-1.7 1.7-2.4 4.1-1.8 6.4 0.9 3.7 4.5 6 8.2 5.2 1.3-0.3 2.5-0.9 3.4-2l10.9-10.3h1182.9z"/>
	<path id="Layer" class="s2" d="m29.1 185.4v-8.4c0-0.2 0.1-0.3 0.3-0.3 0.1 0 0.2 0.1 0.2 0.3v8.4c0 0.2-0.1 0.3-0.2 0.3-0.2 0-0.3-0.1-0.3-0.3z"/>
	<path id="Layer" class="s2" d="m25.4 185.4v-8.4c0-0.2 0.1-0.3 0.3-0.3 0.1 0 0.2 0.1 0.2 0.3v8.4c0 0.2-0.1 0.3-0.2 0.3-0.2 0-0.3-0.1-0.3-0.3z"/>
	<path id="Layer" class="s2" d="m54.6 180c-0.9-1.4-1.6-3-1.9-4.6-0.1-0.1 0-0.3 0.2-0.3 0.1-0.1 0.2 0 0.2 0.2 0.3 1.4 1 3 1.8 4.3 3.4 5.7 10.1 7.8 15 4.8 0.1 0 0.3 0 0.4 0.1 0 0.1 0 0.3-0.1 0.4-1.6 1.1-3.3 1.5-5.2 1.5-3.9 0-8-2.3-10.4-6.4z"/>
	<path id="Layer" class="s2" d="m52.9 169.3l0.4-22.8c-0.2-2 0.4-4 1.4-5.7 2.9-4.9 9.3-6.3 14.2-3.4 2.9 1.7 4.7 4.7 4.8 8.2l-0.4 16.5c0 0.2-0.2 0.5-0.5 0.5-0.2 0-0.5-0.3-0.5-0.5l0.4-15.6v-0.4c0-3.3-1.7-6.2-4.5-7.9-2.1-1.2-4.6-1.6-7-1.1-2.5 0.7-4.5 2.1-5.8 4.2-0.9 1.5-1.5 3.3-1.3 5.2l-0.4 22.8c0 0.3-0.3 0.5-0.6 0.5-0.2 0-0.4-0.1-0.2-0.5z"/>
</svg>