<svg width="376" height="372" viewBox="0 0 376 372" fill="none" xmlns="http://www.w3.org/2000/svg">
<path d="M50.142 1.55757C52.7333 2.98535 54.2881 5.71109 54.4176 8.43684V8.82624V8.95603L54.5472 37.7711L65.042 19.5994C65.1716 19.4696 65.1716 19.3398 65.3012 19.21L65.4307 18.9505C66.856 16.6141 69.4473 15.0565 72.4273 15.0565C76.9621 15.0565 80.7195 18.8207 80.7195 23.3636C80.7195 25.0509 80.2012 26.6085 79.4238 27.9065L69.0586 45.8186V51.919L84.3473 52.3084C86.1613 52.1786 87.9752 52.6978 89.6595 53.7362C94.1943 56.462 95.6196 62.4326 92.8987 66.9756C91.0848 69.9609 87.9752 71.5185 84.736 71.5185H84.2178L69.0586 71.1291V212.609H12.6974V54.9044L2.72088 44.261C1.68435 43.3524 1.03652 42.0544 0.647826 40.6267C-0.259135 36.7327 2.20262 32.8388 5.96002 31.9302C8.42177 31.2812 11.0131 32.1898 12.6974 33.8772L20.8601 42.5736L14.2522 19.4696C13.734 17.9121 13.6044 16.2247 13.9931 14.5373C15.1592 10.1242 19.694 7.39846 24.0992 8.56664C26.9497 9.34543 29.1523 11.552 29.9297 14.1479L37.7036 41.1458V9.34543C37.5741 7.78786 37.9628 6.23029 38.7402 4.67271C41.0724 0.648988 46.1254 -0.648988 50.142 1.55757Z" fill="#FFE9E3"/>
<path d="M331.3 138.624C310.31 138.624 292.689 176.395 287.895 227.405H374.704C369.91 176.525 352.289 138.624 331.3 138.624Z" fill="black"/>
<path d="M331.3 372C352.289 372 369.781 334.488 374.704 283.738H288.025C292.819 334.488 310.31 372 331.3 372Z" fill="black"/>
<path d="M287.895 227.535H129.177H69.0586V83.9791H12.6974V283.738H69.0586H288.025C287.118 274.652 286.729 265.177 286.729 255.312C286.6 245.707 286.988 236.361 287.895 227.535Z" fill="white"/>
<path d="M374.704 227.535H287.895C287.118 236.491 286.6 245.837 286.6 255.442C286.6 265.306 287.118 274.782 287.895 283.867H374.575C375.482 274.782 375.87 265.306 375.87 255.442C376 245.707 375.482 236.361 374.704 227.535Z" fill="white"/>
<path d="M368.226 318.394C372.761 300.222 375.352 278.546 375.352 255.312C375.352 219.358 369.133 187.168 359.286 165.752" stroke="black" stroke-miterlimit="10"/>
<path d="M45.9959 28.4257C45.9959 28.5555 46.1254 28.6853 46.255 28.6853H54.4177C54.5472 28.6853 54.6768 28.5555 54.6768 28.4257C54.6768 28.2959 54.5472 28.1661 54.4177 28.1661H46.1254C45.9959 28.2959 45.9959 28.2959 45.9959 28.4257Z" fill="black"/>
<path d="M45.9959 24.7913C45.9959 24.9211 46.1254 25.0509 46.255 25.0509H54.4177C54.5472 25.0509 54.6768 24.9211 54.6768 24.7913C54.6768 24.6615 54.5472 24.5317 54.4177 24.5317H46.1254C45.9959 24.5317 45.9959 24.6615 45.9959 24.7913Z" fill="black"/>
<path d="M45.2185 63.6008C45.2185 65.418 45.6072 67.1054 46.6437 68.6629C46.7733 68.7927 46.9028 68.7927 47.0324 68.7927C47.162 68.6629 47.162 68.5331 47.162 68.4034C44.1819 63.6008 46.255 56.9812 51.8263 53.6064C53.122 52.8276 54.6768 52.1786 56.102 51.9191C56.2316 51.9191 56.3611 51.7893 56.2316 51.6595C56.2316 51.5297 56.102 51.3999 55.9724 51.5297C54.4176 51.7893 52.8629 52.4382 51.4376 53.3468C47.5507 55.5534 45.2185 59.5771 45.2185 63.6008Z" fill="black"/>
<path d="M61.4142 51.919C61.4142 52.1786 61.6733 52.4382 61.9325 52.4382L84.3474 52.8276C86.1613 52.6978 87.9752 53.217 89.4004 54.1256C91.4735 55.4236 92.8987 57.3705 93.5465 59.8367C94.0648 62.1731 93.6761 64.6392 92.51 66.716C90.8257 69.4417 87.9752 71.1291 84.7361 71.1291H84.3474L69.0586 70.7397C68.7995 70.7397 68.5403 70.9993 68.5403 71.2589C68.5403 71.5185 68.7995 71.7781 69.0586 71.7781L85.2543 72.1675C88.623 72.0377 91.603 70.2205 93.2874 67.365C96.1378 62.5625 94.7126 56.3322 89.9187 53.4766C88.2343 52.4382 86.2908 51.919 84.3474 52.0488L61.9325 51.6594C61.6733 51.3999 61.4142 51.6595 61.4142 51.919Z" fill="black"/>
<path d="M13.2157 283.348V54.7746L3.10958 44.0014C2.07305 43.0928 1.42522 41.9246 1.16609 40.6267C0.259132 36.9923 2.59132 33.358 6.08959 32.4494C8.42178 31.9302 10.754 32.5792 12.4383 34.2666L12.6974 34.5262L21.8966 44.3908L14.7705 19.4696C14.2522 17.9121 14.1227 16.3545 14.5114 14.7969C15.0296 12.7202 16.3253 11.0328 18.1392 9.99441C19.9531 8.95603 22.0262 8.56664 24.0992 9.08583C26.6906 9.73482 28.7636 11.6818 29.6706 14.4075L29.8001 14.7969L38.3515 44.7802L38.2219 9.34543C38.0924 7.78785 38.481 6.23028 39.2584 4.93231C40.1654 3.11514 41.8498 1.81716 43.9228 1.29797C45.9959 0.778783 48.0689 1.03838 49.8828 2.07676C52.215 3.37474 53.7698 5.84089 53.8994 8.56664V9.08583L54.1585 39.5883L65.4307 19.9888C65.4307 19.859 65.5603 19.7292 65.5603 19.7292L65.6899 19.4696C67.1151 17.2631 69.5768 15.8353 72.2977 15.8353C76.5734 15.8353 80.2012 19.3398 80.2012 23.753C80.2012 25.3105 79.8125 26.7383 78.9056 28.0363L78.6464 28.4257L68.5403 46.0782V52.568L84.3473 52.9574C86.1613 52.8276 87.9752 53.3468 89.4004 54.2554C93.6761 56.8514 95.1013 62.5625 92.3804 66.8458C90.6961 69.5715 87.8456 71.2589 84.6065 71.2589L68.4107 70.8695V228.184H374.575C374.575 227.925 374.575 227.535 374.445 227.276H69.4473V71.6483L84.6065 72.0377C88.1048 72.0377 91.3439 70.2205 93.1578 67.2352C96.0083 62.4327 94.583 56.2024 89.7891 53.3468C88.1048 52.3084 86.1613 51.7892 84.2178 51.919L69.4473 51.5297V46.208L79.9421 28.0363C80.7195 26.7383 81.1082 25.1807 81.1082 23.6232C81.1082 18.8207 77.2212 14.7969 72.2977 14.7969C69.4473 14.7969 66.856 16.0949 65.1716 18.4313L64.7829 19.0802C64.6533 19.21 64.6533 19.3398 64.6533 19.4696L55.0655 36.0837L54.8063 8.04745C54.5472 5.1919 52.8629 2.59595 50.4011 1.16818C48.328 -3.16277e-06 45.9959 -0.259598 43.6637 0.38939C41.4611 1.03838 39.5176 2.46615 38.3515 4.54291C37.4445 6.10049 37.1854 7.78786 37.1854 9.47522L37.315 38.0307L30.448 13.8883C29.541 11.0328 27.2088 9.08583 24.3584 8.30704C22.0262 7.65806 19.694 8.04745 17.7505 9.21563C15.6775 10.3838 14.2522 12.3308 13.734 14.6671C13.3453 16.3545 13.3453 18.1717 13.9931 19.859L20.0827 41.016L12.9566 33.358C11.1427 31.6706 8.55134 31.0216 6.08959 31.5408C2.33218 32.4494 0 35.5645 0 39.0691C0 39.5883 0.129566 40.2373 0.259132 40.8862C0.647829 42.314 1.42522 43.7418 2.46175 44.7802L12.3088 55.2938V284.257H374.704C374.704 283.997 374.704 283.608 374.834 283.348H13.2157Z" fill="black"/>
<path d="M374.575 284.257C374.575 283.997 374.575 283.608 374.704 283.348L374.575 284.257Z" fill="black"/>
<path d="M374.575 227.016C374.575 227.276 374.575 227.665 374.704 227.925L374.575 227.016Z" fill="black"/>
<path d="M293.078 200.018C295.869 200.018 298.131 197.752 298.131 194.956C298.131 192.16 295.869 189.894 293.078 189.894C290.287 189.894 288.025 192.16 288.025 194.956C288.025 197.752 290.287 200.018 293.078 200.018Z" fill="#FFE9E3" stroke="black" stroke-width="1.5" stroke-miterlimit="10"/>
<path d="M348.532 313.98C351.323 313.98 353.585 310.377 353.585 305.933C353.585 301.489 351.323 297.886 348.532 297.886C345.741 297.886 343.479 301.489 343.479 305.933C343.479 310.377 345.741 313.98 348.532 313.98Z" fill="#E1F7D7" stroke="black" stroke-width="1.5" stroke-miterlimit="10"/>
<path d="M258.613 314.11C261.404 314.11 263.666 312.309 263.666 310.087C263.666 307.864 261.404 306.063 258.613 306.063C255.823 306.063 253.56 307.864 253.56 310.087C253.56 312.309 255.823 314.11 258.613 314.11Z" fill="#E1F7D7" stroke="black" stroke-width="1.5" stroke-miterlimit="10"/>
<path d="M68.7414 84.4631V83.5545L12.6394 83.5545V84.4631L68.7414 84.4631Z" fill="black"/>
</svg>
