<svg width="30" height="30" viewBox="0 0 30 30" fill="none" xmlns="http://www.w3.org/2000/svg">
<g clip-path="url(#clip0_164_1498)">
<path d="M29.8 14.9C29.8 6.7 23.1 0 14.9 0C6.7 0 0 6.7 0 14.9C0 21.4 4.2 27 10.1 29V17.7L7.3 17.8C7.2 17.8 7.2 17.8 7.1 17.8C7 17.8 7 17.8 6.9 17.8C6.8 17.8 6.7 17.7 6.6 17.7C6.5 17.7 6.5 17.7 6.4 17.6C6.3 17.5 6.2 17.5 6.2 17.4L6.1 17.3C6 17.1 5.9 17 5.8 16.9C5.5 16.5 5.5 16 5.6 15.5C5.7 15 6 14.6 6.4 14.4C6.7 14.2 7.1 14.1 7.4 14.1L10.1 14V13L8.2 9.8C8.1 9.6 8 9.3 8 9C8 8.1 8.7 7.4 9.6 7.4C10.1 7.4 10.6 7.6 10.9 8.1L11 8.2C11 8.2 11 8.2 11 8.3L12.7 11.3V6.3C12.7 5.8 13 5.3 13.5 5.1C14.3 4.7 15.2 4.9 15.7 5.7C15.9 6 15.9 6.3 15.9 6.6V11.7L17.1 7.4C17.3 6.9 17.7 6.5 18.2 6.4C18.6 6.3 19 6.4 19.4 6.6C19.8 6.8 20 7.2 20.1 7.6C20.2 7.9 20.2 8.2 20.1 8.5L19 12.2L20.3 10.8C20.6 10.5 21.1 10.4 21.5 10.5C22.1 10.6 22.6 11.2 22.6 11.8C22.6 11.9 22.6 12 22.6 12.1C22.5 12.4 22.4 12.6 22.2 12.8L20.4 14.7V28.7C25.9 26.5 29.8 21.2 29.8 14.9Z" fill="black"/>
<path d="M20.2 19.9V14.7L22 12.8C22.2 12.6 22.3 12.4 22.4 12.2C22.5 11.9 22.4 11.6 22.2 11.3C22 11 21.8 10.8 21.4 10.8C21 10.7 20.6 10.8 20.3 11.1L18.6 12.9L19.9 8.39999C20 7.99999 20.1 7.79999 20 7.49999C19.9 7.09999 19.7 6.79999 19.3 6.59999C18.9 6.39999 18.6 6.39999 18.2 6.39999C17.7 6.49999 17.3 6.89999 17.2 7.39999V7.49999L15.7 12.9V6.49999C15.7 6.19999 15.7 5.89999 15.5 5.69999C15.1 4.99999 14.3 4.79999 13.6 5.19999C13.2 5.39999 12.9 5.89999 12.9 6.39999V6.49999V9.29999H14.3H12.9V9.89999H14.3H12.9V11.8L10.9 8.29999C10.9 8.29999 10.9 8.29999 10.9 8.19999V8.09999C10.6 7.69999 10.2 7.39999 9.69997 7.39999C8.79997 7.59999 8.19997 8.19999 8.19997 8.99999C8.19997 9.29999 8.29997 9.49999 8.39997 9.79999V9.89999L10.2 13.1V14.1H11.4C11.4 14.1 11.5 14.1 11.5 14.2C11.5 14.2 11.5 14.3 11.4 14.3L7.39997 14.4C7.09997 14.4 6.79997 14.5 6.49997 14.6C6.09997 14.8 5.89997 15.2 5.79997 15.6C5.69997 16 5.79997 16.5 5.99997 16.8C6.29997 17.3 6.79997 17.6 7.39997 17.6L10.3 17.5V17.6V19.9H20.2ZM12.5 14C12.8 14.1 13.1 14.2 13.3 14.3C14 14.7 14.4 15.5 14.4 16.2C14.4 16.5 14.3 16.8 14.1 17.1C14.1 17.1 14.1 17.1 14 17.1C14 17.1 14 17.1 14 17C14.5 16.1 14.2 14.9 13.2 14.3C13.1 14.3 12.8 14.2 12.5 14C12.5 14.1 12.5 14.1 12.5 14Z" fill="#CAEFFF"/>
<path d="M14.9 29.8C16.8 29.8 18.6 29.4 20.3 28.8V20H10.3V29C11.7 29.5 13.3 29.8 14.9 29.8Z" fill="white"/>
<path d="M6.2001 17.3L6.1001 17.2C6.1001 17.3 6.2001 17.3 6.2001 17.3Z" fill="black"/>
<path d="M22.1999 12.8C22.3999 12.6 22.4999 12.4 22.5999 12.1C22.5999 12 22.5999 11.9 22.5999 11.8C22.5999 11.2 22.1999 10.6 21.4999 10.5C21.0999 10.4 20.5999 10.5 20.2999 10.8L18.9999 12.2L20.0999 8.39999C20.1999 8.09999 20.1999 7.79999 20.0999 7.49999C19.9999 7.09999 19.6999 6.69999 19.3999 6.49999C18.9999 6.29999 18.5999 6.19999 18.1999 6.29999C17.6999 6.39999 17.2999 6.79999 17.0999 7.29999L15.8999 11.6V6.49999C15.8999 6.19999 15.8999 5.89999 15.6999 5.59999C15.2999 4.79999 14.2999 4.59999 13.4999 4.99999C12.9999 5.29999 12.6999 5.69999 12.6999 6.19999V11.2L10.9999 8.19999C10.9999 8.19999 10.9999 8.19999 10.9999 8.09999L10.8999 7.99999C10.5999 7.59999 10.0999 7.29999 9.5999 7.29999C8.6999 7.39999 7.9999 8.19999 7.9999 8.99999C7.9999 9.29999 8.0999 9.49999 8.1999 9.79999L10.0999 13.1V14.1L7.3999 14.2H10.1999V13.2L8.2999 9.79999C8.1999 9.59999 8.0999 9.29999 8.0999 8.99999C8.0999 8.19999 8.7999 7.49999 9.5999 7.49999C10.0999 7.49999 10.5999 7.79999 10.8999 8.19999C10.8999 8.19999 10.8999 8.19999 10.8999 8.29999L12.7999 11.6V9.99999V9.39999V6.59999V6.49999C12.7999 5.99999 13.0999 5.49999 13.5999 5.29999C14.2999 4.89999 15.1999 5.09999 15.5999 5.89999C15.6999 6.19999 15.7999 6.49999 15.7999 6.69999V12.5L17.1999 7.59999C17.2999 7.09999 17.6999 6.69999 18.2999 6.59999C19.0999 6.39999 19.8999 6.89999 20.0999 7.69999C20.1999 7.99999 20.1999 8.29999 20.0999 8.59999L18.8999 12.7L20.3999 11.1C20.6999 10.8 21.1999 10.6 21.5999 10.7C22.2999 10.9 22.6999 11.6 22.5999 12.3C22.3999 12.4 22.2999 12.6 22.1999 12.8L20.2999 14.7V19.9V28.8V14.8L22.1999 12.8Z" fill="black"/>
<path d="M6.5999 17.6C6.4999 17.6 6.4999 17.6 6.3999 17.5C6.4999 17.5 6.5999 17.5 6.5999 17.6Z" fill="black"/>
<path d="M10.1 19.9V17.7H10V29V19.9H10.1Z" fill="black"/>
<path d="M7.3999 17.6L10.1999 17.5C10.1999 17.5 10.2999 17.5 10.2999 17.6V17.5L7.3999 17.6Z" fill="black"/>
<path d="M7.4 14.3C7.1 14.3 6.8 14.4 6.5 14.5C6.8 14.4 7.1 14.3 7.4 14.3Z" fill="black"/>
<path d="M10.3001 13L8.4001 9.90001V9.80001C8.2001 9.60001 8.2001 9.30001 8.2001 9.00001C8.2001 8.20001 8.8001 7.60001 9.6001 7.60001C10.1001 7.60001 10.5001 7.80001 10.8001 8.30001V8.40001C10.8001 8.40001 10.8001 8.40001 10.8001 8.50001L12.8001 12V10.1H12.7001V11.7L10.8001 8.40001C10.8001 8.40001 10.8001 8.40001 10.8001 8.30001C10.5001 7.90001 10.1001 7.60001 9.5001 7.60001C8.8001 7.50001 8.1001 8.20001 8.1001 9.00001C8.1001 9.30001 8.2001 9.60001 8.3001 9.80001L10.3001 13L10.2001 14H10.3001V13Z" fill="black"/>
<path d="M10.3 17.6C10.3 17.6 10.2 17.7 10.3 17.6L10.2 19.9H10.3V17.6Z" fill="black"/>
<path d="M12.9 6.39999C12.9 5.79999 13.2 5.39999 13.6 5.09999C14.3 4.69999 15.1 4.99999 15.5 5.59999C15.6 5.79999 15.7 6.09999 15.7 6.39999V12.8L17.2 7.39999V7.29999C17.3 6.79999 17.7 6.49999 18.2 6.29999C18.6 6.19999 18.9 6.29999 19.3 6.49999C19.7 6.69999 19.9 6.99999 20 7.39999C20.1 7.69999 20.1 7.99999 20 8.19999L18.7 12.7L20.4 10.9C20.7 10.6 21.1 10.5 21.5 10.6C21.8 10.7 22.1 10.9 22.3 11.1C22.5 11.4 22.5 11.7 22.5 12C22.4 12.2 22.3 12.4 22.1 12.6L20.3 14.5V19.7H20.4V14.5L22.2 12.6C22.4 12.4 22.5 12.2 22.6 12C22.8 11.3 22.3 10.6 21.6 10.4C21.1 10.3 20.7 10.4 20.4 10.8L18.9 12.4L20 8.29999C20.1 7.99999 20.1 7.69999 20 7.39999C19.8 6.59999 19 6.09999 18.2 6.29999C17.7 6.39999 17.3 6.79999 17.1 7.29999L15.7 12.2V6.39999C15.7 6.09999 15.7 5.79999 15.5 5.59999C15.1 4.89999 14.2 4.59999 13.5 4.99999C13.1 5.29999 12.8 5.79999 12.9 6.39999C12.8 6.39999 12.8 6.39999 12.9 6.39999L12.8 9.19999H12.9V6.39999Z" fill="black"/>
<path d="M12.9 9.29999H12.8V9.89999H12.9V9.29999Z" fill="black"/>
<path d="M20.3 28.7C20.3 28.7 20.4 28.7 20.3 28.7V19.8V28.7Z" fill="black"/>
<path d="M14.3 9.89999H12.8V9.99999L14.3 9.89999C14.3 9.99999 14.3 9.89999 14.3 9.89999Z" fill="black"/>
<path d="M12.9 9.99999V9.89999H12.8V9.99999H12.9Z" fill="black"/>
<path d="M14.2999 9.30001C14.2999 9.20001 14.2999 9.20001 14.2999 9.30001H12.8999V9.40001L14.2999 9.30001Z" fill="black"/>
<path d="M12.9 9.20001H12.8V9.30001H12.9V9.20001Z" fill="black"/>
<path d="M13.2999 14.4C14.2999 15 14.6999 16.2 14.0999 17.1C14.0999 17.1 14.0999 17.1 14.0999 17.2C14.0999 17.2 14.0999 17.2 14.1999 17.2C14.3999 16.9 14.4999 16.6 14.4999 16.3C14.4999 15.5 14.0999 14.8 13.2999 14.4C13.0999 14.2 12.7999 14.1 12.4999 14C12.4999 14 12.4999 14 12.3999 14C12.3999 14 12.3999 14 12.3999 14.1C12.7999 14.2 13.0999 14.3 13.2999 14.4Z" fill="black"/>
<path d="M6.9001 17.7C6.8001 17.7 6.7001 17.6 6.6001 17.6C6.7001 17.6 6.8001 17.7 6.9001 17.7Z" fill="black"/>
<path d="M6.39995 17.5C6.29995 17.4 6.19995 17.4 6.19995 17.3C6.29995 17.4 6.39995 17.5 6.39995 17.5Z" fill="black"/>
<path d="M7.4001 17.7C7.3001 17.7 7.2001 17.7 7.1001 17.7C7.1001 17.7 7.2001 17.7 7.4001 17.7L10.1001 17.6L7.4001 17.7Z" fill="black"/>
<path d="M6.10005 17.2C6.00005 17.1 5.90005 17 5.80005 16.9C5.90005 17 6.00005 17.1 6.10005 17.2Z" fill="black"/>
<path d="M11.4999 14.1C11.4999 14.1 11.4999 14 11.4999 14.1L10.1999 14V14.1L7.3999 14.2L11.4999 14.1C11.4999 14.2 11.4999 14.2 11.4999 14.1Z" fill="black"/>
<path d="M10.2 17.6L7.50002 17.7H7.40002C6.80002 17.7 6.30002 17.4 5.90002 16.9C5.40002 16 5.60002 15 6.50002 14.5C6.80002 14.3 7.10002 14.2 7.50002 14.2L10.3 14.1V14H7.50002C7.10002 14 6.80002 14.1 6.50002 14.3C6.00002 14.6 5.70002 15 5.60002 15.5C5.50002 16 5.60002 16.5 5.80002 16.9C5.90002 17 6.00002 17.1 6.10002 17.2L6.20002 17.3C6.30002 17.4 6.40002 17.4 6.40002 17.5C6.40002 17.5 6.50002 17.5 6.60002 17.6C6.70002 17.6 6.80002 17.7 6.90002 17.7C7.00002 17.7 7.00002 17.7 7.10002 17.7C7.20002 17.7 7.30002 17.7 7.40002 17.7L10.2 17.6Z" fill="black"/>
<path d="M7.40004 14.2C7.10004 14.2 6.70004 14.3 6.40004 14.5C5.60004 15 5.40004 16 5.90004 16.8C6.20004 17.3 6.80004 17.6 7.40004 17.6H7.50004L10.2 17.5V17.6C10.2 17.6 10.3 17.6 10.3 17.5C10.3 17.5 10.3 17.4 10.2 17.4L7.40004 17.5H7.30004C6.70004 17.5 6.20004 17.2 5.90004 16.7C5.70004 16.3 5.60004 15.9 5.70004 15.5C5.80004 15.1 6.10004 14.7 6.40004 14.5C6.80004 14.4 7.10004 14.3 7.40004 14.2H10.2V14.1H10.1V14.2H7.40004Z" fill="black"/>
<circle cx="14.9" cy="14.9" r="14.65" stroke="#FFF8D4" stroke-width="0.5"/>
</g>
<defs>
<clipPath id="clip0_164_1498">
<rect width="29.8" height="29.8" fill="white"/>
</clipPath>
</defs>
</svg>
