<svg width="252" height="190" viewBox="0 0 252 190" fill="none" xmlns="http://www.w3.org/2000/svg">
<g clip-path="url(#clip0_164_2084)">
<path d="M242.8 188.4H9.19999C4.59999 188.4 0.799988 184.6 0.799988 180V64.5001C0.799988 59.9001 4.49999 56.1001 9.19999 56.1001H243C247.6 56.1001 251.4 59.8001 251.4 64.5001V180C251.2 184.6 247.5 188.4 242.8 188.4Z" fill="#E1F7D7" stroke="black" stroke-width="1.5" stroke-miterlimit="10"/>
<path d="M212.2 39.7C212.4 38.8 212.5 37.9 212.5 36.9C212.5 16.8 174.7 0.5 128 0.5C81.4 0.5 43.5 16.8 43.5 36.9V87H43.8C47.1 105.8 83.5 120.6 128 120.6C174.6 120.6 212.5 104.3 212.5 84.2C212.5 83.3 212.4 82.3 212.2 81.4V39.7Z" fill="#FFF8D4" stroke="black" stroke-miterlimit="10"/>
<path d="M84 40.0997C84.6 43.0997 85.9 45.4997 88.9 46.0997C91.3 46.4997 93.2 45.3997 93.2 42.5997C93.2 39.4997 90.9 38.3997 88.7 37.1997C85.4 35.2997 82.3 34.0997 82.3 29.6997C82.3 25.7997 85.4 23.6997 89 23.6997C92.8 23.6997 95 26.1997 95.9 30.1997C95 30.4997 94 30.6997 93.1 30.9997C92.6 28.4997 91.4 26.6997 88.9 26.5997C87 26.4997 85.2 27.4997 85.2 29.5997C85.2 31.7997 86.5 32.5997 88.2 33.5997C89.8 34.4997 91.4 35.3997 93 36.3997C95 37.8997 96.1 39.9997 96.1 42.6997C96.1 47.5997 93.1 49.8997 88.9 48.9997C84.7 48.0997 82.1 44.6997 81.4 40.4997C82.3 40.3997 83.1 40.2997 84 40.0997Z" fill="black"/>
<path d="M88.9 50.3998C84.3 49.3998 81 45.4998 80.2 40.4998C80.1 40.0998 80.1 39.7998 80 39.3998C81.6 39.1998 83.3 38.8998 84.9 38.5998C85 39.0998 85.1 39.5998 85.2 40.0998C85.9 43.7998 87.5 44.5998 88.9 44.7998C89.8 44.9998 91.9 44.9998 91.9 42.3998C91.9 40.6998 91 39.9998 88.7 38.6998C88.5 38.5998 88.3 38.4998 88.1 38.3998C87.8 38.1998 87.5 38.0998 87.2 37.8998C84.2 36.1998 80.9 34.3998 80.9 29.5998C80.9 25.3998 84.1 22.3998 88.8 22.2998C92.9 22.2998 95.8 24.8998 96.9 29.8998C97 30.2998 97.1 30.7998 97.2 31.1998C95.5 31.6998 93.7 32.1998 92 32.5998C91.9 32.0998 91.8 31.5998 91.7 31.1998C91.1 28.3998 89.9 27.9998 88.7 27.8998C88.4 27.8998 86.2 27.7998 86.2 29.6998C86.2 30.9998 86.6 31.3998 88.5 32.3998C90.1 33.2998 91.8 34.2998 93.4 35.1998C95.8 36.8998 97.2 39.5998 97.1 42.7998C97.3 48.3998 93.9 51.4998 88.9 50.3998ZM82.8 41.5998C83.7 44.7998 85.8 47.0998 88.8 47.6998C92.5 48.3998 94.7 46.4998 94.7 42.5998C94.7 40.4998 93.9 38.7998 92.3 37.5998C90.7 36.6998 89.1 35.6998 87.5 34.7998C85.7 33.7998 83.7 32.5998 83.7 29.5998C83.7 26.9998 85.7 25.2998 88.7 25.2998C90.4 25.2998 92.6 26.0998 93.7 29.2998C93.8 29.2998 94 29.1998 94.1 29.1998C93.2 26.3998 91.4 25.0998 88.8 24.9998C86.1 24.9998 83.4 26.3998 83.4 29.7998C83.4 32.7998 85 33.7998 88.2 35.4998C88.5 35.6998 88.8 35.7998 89.1 35.9998C89.3 36.0998 89.4 36.1998 89.6 36.2998C91.7 37.4998 94.4 38.8998 94.4 42.7998C94.4 46.1998 92.2 48.1998 88.9 47.4998C86.9 47.0998 84.3 45.6998 83.1 41.6998C83 41.5998 82.9 41.5998 82.8 41.5998Z" fill="black"/>
<path d="M108.9 23.5999C109.5 29.9999 110 36.3999 110.6 42.8999H110.7C112 38.4999 113.3 33.9999 114.6 29.4999C114.9 29.4999 115.1 29.4999 115.4 29.4999C116.7 34.0999 117.9 38.6999 119.2 43.2999H119.3C119.9 36.7999 120.5 30.1999 121.1 23.5999C122.1 23.6999 123.1 23.8999 124.1 23.9999C123 33.6999 121.9 43.3999 120.8 52.9999C120.5 52.9999 120.1 52.9999 119.8 52.9999C118.2 47.1999 116.6 41.3999 115.1 35.5999C113.5 41.2999 111.9 46.7999 110.3 52.2999C110 52.2999 109.6 52.1999 109.3 52.1999C108.2 42.6999 107.2 33.1999 106.2 23.8999C106.9 23.8999 107.9 23.7999 108.9 23.5999Z" fill="black"/>
<path d="M121.7 54.6999C120.7 54.6999 119.7 54.5999 118.7 54.5999C117.4 49.8999 116.1 45.0999 114.9 40.4999C113.6 45.0999 112.3 49.5999 111 54.0999C110 53.9999 109 53.8999 108 53.7999C106.8 43.2999 105.7 32.9999 104.6 22.7999C106.4 22.5999 108.3 22.2999 110.1 21.9999C110.5 26.7999 110.9 31.4999 111.3 36.2999C112.1 33.5999 112.9 30.7999 113.7 27.9999C114.6 27.9999 115.4 27.9999 116.3 27.9999C117.1 30.7999 117.9 33.6999 118.6 36.4999C119.1 31.5999 119.5 26.7999 120 21.8999C121.8 22.1999 123.6 22.3999 125.5 22.6999C124.1 33.4999 122.9 44.0999 121.7 54.6999ZM118.7 44.8999C119.1 46.2999 119.5 47.6999 119.8 49.0999C120.7 41.2999 121.6 33.3999 122.5 25.4999C122.3 25.4999 122.2 25.4999 122 25.3999C121.4 31.8999 120.8 38.3999 120.2 44.8999C119.7 44.8999 119.2 44.8999 118.7 44.8999ZM107.3 25.3999C108.2 32.9999 109 40.6999 109.9 48.4999C110.3 47.1999 110.7 45.8999 111.1 44.4999C110.6 44.4999 110 44.3999 109.5 44.3999C109 37.9999 108.4 31.5999 107.9 25.2999C107.6 25.2999 107.4 25.2999 107.3 25.3999Z" fill="black"/>
<path d="M137.1 44.7999C136.4 47.5999 135.7 50.3999 135 53.1999C134 52.7999 133.1 52.3999 132.1 51.9999C134.5 42.7999 136.9 33.4999 139.2 24.3999C140.4 24.3999 141.7 24.3999 142.9 24.3999C145.3 33.3999 147.7 42.2999 150.2 50.8999C149.2 51.3999 148.3 51.8999 147.3 52.4999C146.6 49.8999 145.9 47.1999 145.2 44.4999C142.5 44.5999 139.8 44.6999 137.1 44.7999ZM141.1 28.4999C140 32.7999 139 37.0999 137.9 41.4999C140.1 41.3999 142.2 41.2999 144.4 41.1999C143.2 37.0999 142.2 32.7999 141.1 28.4999Z" fill="black"/>
<path d="M146.5 54.3998C145.7 51.5998 145 48.7998 144.2 45.8998C142.1 45.9998 140 46.0998 137.9 46.1998C137.2 49.1998 136.4 52.0998 135.7 55.0998C133.9 54.3998 132.2 53.5998 130.4 52.8998C133 42.7998 135.6 32.7998 138.2 22.7998C140.1 22.7998 141.9 22.7998 143.8 22.7998C146.4 32.5998 149.1 42.2998 151.7 51.4998C150 52.4998 148.3 53.4998 146.5 54.3998ZM133.6 50.9998C133.8 51.0998 134 51.0998 134.1 51.1998C134.8 48.4998 135.4 45.8998 136.1 43.1998C139.4 43.0998 142.7 42.9998 146 42.7998C146.7 45.2998 147.3 47.7998 148 50.2998C148.2 50.1998 148.3 50.0998 148.5 49.9998C146.3 42.0998 144.1 33.9998 141.9 25.7998C141.8 25.7998 141.7 25.7998 141.6 25.7998C143 31.4998 144.5 37.0998 145.9 42.5998C142.6 42.7998 139.3 42.8998 136 42.9998C137.4 37.1998 138.8 31.4998 140.2 25.7998C140.1 25.7998 140 25.7998 139.9 25.7998C137.9 34.1998 135.8 42.5998 133.6 50.9998ZM139.6 39.8998C140.6 39.8998 141.7 39.7998 142.7 39.7998C142.2 37.7998 141.7 35.7998 141.1 33.6998C140.6 35.7998 140.1 37.8998 139.6 39.8998Z" fill="black"/>
<path d="M164.2 49.3999C163.2 49.5999 162.3 49.6999 161.3 49.8999C161.3 41.2999 161.2 32.7999 161.2 24.1999C163.6 24.1999 165.9 24.0999 168.3 24.0999C173.6 24.0999 175.6 26.8999 175.6 30.1999C175.6 34.9999 172.2 37.4999 169.1 37.8999C167.5 38.0999 165.9 38.2999 164.2 38.4999C164.2 42.0999 164.2 45.6999 164.2 49.3999ZM168.2 35.1999C171.1 34.8999 172.6 33.3999 172.6 30.5999C172.6 27.3999 170.6 26.6999 168.2 26.7999C166.9 26.8999 165.5 26.8999 164.2 26.8999C164.2 29.7999 164.2 32.5999 164.2 35.4999C165.5 35.4999 166.8 35.3999 168.2 35.1999Z" fill="black"/>
<path d="M165.5 50.4998C163.7 50.8998 161.9 51.1998 160.1 51.4998C160 41.8998 160 32.3998 159.9 22.7998C162.7 22.7998 165.4 22.7998 168.2 22.7998C172.3 22.7998 176.8 24.7998 176.8 30.1998C176.8 35.6998 172.9 38.7998 169 39.3998C167.8 39.5998 166.6 39.6998 165.4 39.8998C165.4 43.2998 165.5 46.8998 165.5 50.4998ZM162.6 48.2998C162.7 48.2998 162.9 48.2998 163 48.1998C163 44.5998 163 40.8998 162.9 37.2998C164.9 37.0998 167 36.8998 169 36.6998C171.6 36.3998 174.3 34.4998 174.3 30.3998C174.3 27.1998 172.1 25.3998 168.2 25.4998C166.3 25.5998 164.3 25.5998 162.4 25.5998C162.5 33.0998 162.5 40.6998 162.6 48.2998ZM168.2 36.5998C166.5 36.7998 164.7 36.9998 163 37.0998C163 33.2998 163 29.4998 162.9 25.6998C164.7 25.6998 166.4 25.5998 168.1 25.5998C172.8 25.4998 173.7 28.2998 173.7 30.5998C173.8 33.8998 171.7 36.1998 168.2 36.5998ZM165.4 34.0998C166.3 33.9998 167.2 33.8998 168.2 33.8998C171 33.5998 171.3 32.1998 171.3 30.7998C171.3 29.0998 170.8 28.1998 168.1 28.2998C167.2 28.2998 166.3 28.3998 165.3 28.3998C165.4 30.2998 165.4 32.1998 165.4 34.0998Z" fill="black"/>
<path d="M10.9 134.3H242" stroke="black" stroke-width="1.5" stroke-miterlimit="10" stroke-linecap="round"/>
<path d="M18.3 74.7C21.5584 74.7 24.2 73.1329 24.2 71.2C24.2 69.267 21.5584 67.7 18.3 67.7C15.0415 67.7 12.4 69.267 12.4 71.2C12.4 73.1329 15.0415 74.7 18.3 74.7Z" fill="black"/>
<path d="M18.3 122.2C21.5584 122.2 24.2 120.633 24.2 118.7C24.2 116.767 21.5584 115.2 18.3 115.2C15.0415 115.2 12.4 116.767 12.4 118.7C12.4 120.633 15.0415 122.2 18.3 122.2Z" fill="black"/>
<path d="M235.5 74.7C238.758 74.7 241.4 73.1329 241.4 71.2C241.4 69.267 238.758 67.7 235.5 67.7C232.241 67.7 229.6 69.267 229.6 71.2C229.6 73.1329 232.241 74.7 235.5 74.7Z" fill="black"/>
<path d="M235.5 122.2C238.758 122.2 241.4 120.633 241.4 118.7C241.4 116.767 238.758 115.2 235.5 115.2C232.241 115.2 229.6 116.767 229.6 118.7C229.6 120.633 232.241 122.2 235.5 122.2Z" fill="black"/>
<path d="M47.9 39.4001H48.2C51.3 57.2001 85.8 71.3001 128 71.3001C172.2 71.3001 208.1 55.9 208.1 36.8" stroke="black" stroke-width="1.5" stroke-miterlimit="10" stroke-linecap="round"/>
</g>
<defs>
<clipPath id="clip0_164_2084">
<rect width="252" height="189.1" fill="white"/>
</clipPath>
</defs>
</svg>
