<svg width="25" height="25" viewBox="0 0 25 25" fill="none" xmlns="http://www.w3.org/2000/svg">
<path d="M4.38035 3.13801C5.07479 3.23149 5.84936 3.29827 6.61058 3.43181C7.15812 3.5253 7.45193 3.31162 7.63889 2.83085C7.86592 2.22989 8.11966 1.64228 8.3734 1.04132C8.82746 -0.0537633 9.40171 -0.21402 10.3766 0.507134C10.7505 0.787583 11.1245 1.06803 11.485 1.36184C12.5134 2.17647 12.5134 2.17647 13.515 1.38854C13.929 1.05468 14.3563 0.734164 14.7837 0.413651C15.5716 -0.173956 16.1859 -0.0136993 16.5865 0.89442C16.8803 1.5488 17.1341 2.20318 17.4012 2.87092C17.5748 3.32498 17.8686 3.53865 18.3761 3.45852C19.0572 3.33833 19.7383 3.28491 20.4327 3.19143C21.5278 3.04453 21.9818 3.49859 21.8483 4.59367C21.7682 5.27476 21.688 5.96921 21.5678 6.63694C21.4877 7.14442 21.6747 7.43822 22.1287 7.62519C22.8098 7.89228 23.4909 8.17273 24.1587 8.46654C24.9867 8.82711 25.1603 9.44143 24.6261 10.1759C24.1987 10.7769 23.758 11.3512 23.2906 11.9254C22.9434 12.3394 22.9567 12.7 23.304 13.114C23.758 13.6615 24.1854 14.2358 24.6127 14.81C25.1736 15.5712 25.0267 16.1856 24.1587 16.5728C23.4909 16.8666 22.8098 17.1337 22.1154 17.4142C21.6613 17.6012 21.461 17.895 21.5411 18.4024C21.6613 19.0969 21.7415 19.8047 21.8349 20.5125C21.9551 21.5007 21.5278 21.9548 20.5395 21.8613C19.8584 21.7945 19.164 21.7144 18.4963 21.5809C17.8686 21.4607 17.5347 21.7144 17.3344 22.2753C17.094 22.9297 16.8269 23.5574 16.5465 24.185C16.1993 24.9729 15.5716 25.1599 14.8771 24.6658C14.2361 24.2117 13.6352 23.731 13.0208 23.2502C12.6736 22.9697 12.3531 22.9697 11.9925 23.2368C11.4049 23.7043 10.804 24.1717 10.1896 24.6124C9.44178 25.1599 8.80075 24.9863 8.42682 24.145C8.13302 23.4772 7.86592 22.7828 7.59883 22.1017C7.41186 21.6476 7.11806 21.4607 6.61058 21.5408C5.91614 21.661 5.20834 21.7411 4.50054 21.8346C3.51229 21.9548 3.07159 21.5141 3.16507 20.5392C3.23184 19.8581 3.31197 19.1637 3.44552 18.4959C3.56571 17.8682 3.31197 17.5477 2.75107 17.3341C2.1234 17.107 1.50909 16.8399 0.894769 16.5728C0.0267137 16.1989 -0.160252 15.5846 0.400645 14.8234C0.84135 14.2091 1.30877 13.6215 1.77618 13.0205C2.05663 12.6733 2.05663 12.3528 1.77618 11.9922C1.34883 11.458 0.934833 10.8971 0.520838 10.3496C-0.200316 9.40137 -0.0400599 8.82711 1.06838 8.34634C1.64263 8.10596 2.21688 7.86558 2.80449 7.6519C3.33868 7.45158 3.57906 7.13107 3.47223 6.53011C3.33868 5.80895 3.2452 5.07444 3.17842 4.35329C3.08494 3.5253 3.48558 3.12466 4.38035 3.13801Z" fill="#CAEFFF"/>
<path d="M17.882 9.85536C17.7217 9.48143 17.4145 9.18763 17.054 8.9606C16.7201 8.74692 16.5331 9.08079 16.3328 9.26775C14.7436 10.857 13.141 12.4328 11.5652 14.0354C11.2046 14.396 10.9509 14.4494 10.5903 14.0487C9.9359 13.3543 9.2281 12.7133 8.57372 12.0055C8.19979 11.6048 7.94605 11.7117 7.6656 12.0722C7.39851 12.4061 6.8109 12.6331 7.3718 13.194C8.48024 14.2891 9.57532 15.3842 10.6704 16.4927C10.9776 16.8132 11.2046 16.7731 11.4984 16.4659C13.515 14.436 15.5582 12.4061 17.5748 10.3762C17.7217 10.2426 17.882 10.1091 17.882 9.85536Z" fill="black"/>
</svg>
