<svg width="824" height="147" viewBox="0 0 824 147" fill="none" xmlns="http://www.w3.org/2000/svg">
<path d="M3.81113 139.356H17.1305V74.7082H60.667V62.8462H17.1305V19.3521H69.0164V7.49009H3.81113V139.356Z" fill="black"/>
<path d="M171.469 98.63L181.807 141.926L194.927 138.368L161.331 7.49009H145.427L111.83 138.368L124.951 141.926L135.288 98.63H171.469ZM168.289 86.7679H138.469L153.18 25.0854H153.578L168.289 86.7679Z" fill="black"/>
<path d="M264.181 19.3521H280.483C294.001 19.3521 302.35 25.2831 302.35 42.4831C302.35 60.2761 295.194 68.7772 283.663 68.7772H264.181V19.3521ZM250.862 139.356H264.181V80.6392H279.091L308.911 141.926L320.838 136.193L293.404 79.6507C309.706 74.1151 316.266 58.6945 316.266 42.4831C316.266 18.759 299.766 7.49009 286.645 7.49009H250.862V139.356Z" fill="black"/>
<path d="M403.213 63.4393L384.129 7.49009H367.628L363.652 139.356H377.568L380.153 29.4348H380.55L403.213 95.6644L425.876 29.4348H426.273L428.858 139.356H442.972L438.996 7.49009H422.297L403.213 63.4393Z" fill="black"/>
<path d="M499.702 139.356H564.311V127.494H513.021V74.7082H555.365V62.8462H513.021V19.3521H564.311V7.49009H499.702V139.356Z" fill="black"/>
<path d="M638.932 19.3521H655.234C668.752 19.3521 677.101 25.2831 677.101 42.4831C677.101 60.2761 669.945 68.7772 658.414 68.7772H638.932V19.3521ZM625.613 139.356H638.932V80.6392H653.842L683.662 141.926L695.589 136.193L668.156 79.6507C684.457 74.1151 691.017 58.6945 691.017 42.4831C691.017 18.759 674.517 7.49009 661.396 7.49009H625.613V139.356Z" fill="black"/>
<path d="M777.964 71.9404L749.337 4.92L737.012 9.8625L771.205 87.361V139.356H784.524V87.361L818.916 9.8625L806.591 4.92L777.964 71.9404Z" fill="black"/>
<path fill-rule="evenodd" clip-rule="evenodd" d="M0 143.162V3.68428H72.8276V23.1578H20.9416V59.0404H64.4781V78.5139H20.9416V143.162H0ZM17.1305 139.356H3.81113V7.49009H69.0164V19.3521H17.1305V62.8462H60.667V74.7082H17.1305V139.356ZM171.469 98.63H135.288L124.951 141.926L111.83 138.368L145.427 7.49009H161.331L194.927 138.368L181.807 141.926L171.469 98.63ZM138.298 102.436L127.746 146.628L107.206 141.057L142.47 3.68428H164.288L199.552 141.057L179.012 146.628L168.46 102.436H138.298ZM247.051 143.162V3.68428H286.645C301.887 3.68428 320.077 16.6731 320.077 42.483C320.077 58.284 314.101 74.3637 298.61 81.6519L325.934 137.967L307.142 147L276.706 84.4449H267.993V143.162H247.051ZM279.091 80.6392L308.911 141.926L320.838 136.193L293.404 79.6507C294.641 79.2308 295.821 78.754 296.947 78.2243C310.663 71.771 316.266 57.4648 316.266 42.4831C316.266 18.759 299.766 7.49009 286.645 7.49009H250.862V139.356H264.181V80.6392H279.091ZM384.129 7.49009L403.213 63.4393L422.297 7.49009H438.996L442.972 139.356H428.858L426.273 29.4348H425.876L425.873 29.4441L403.213 95.6644L380.553 29.4441L380.55 29.4348H380.153L377.568 139.356H363.652L367.628 7.49009H384.129ZM383.486 49.7852L381.291 143.162H359.725L363.93 3.68428H386.857L403.213 51.6359L419.569 3.68428H442.694L446.9 143.162H425.135L422.94 49.7852L403.213 107.434L383.486 49.7852ZM495.891 143.162V3.68428H568.122V23.1578H516.833V59.0404H559.176V78.5139H516.833V123.688H568.122V143.162H495.891ZM564.311 127.494V139.356H499.702V7.49009H564.311V19.3521H513.021V62.8462H555.365V74.7082H513.021V127.494H564.311ZM621.802 143.162V3.68428H661.396C676.638 3.68428 694.828 16.6732 694.828 42.483C694.828 58.284 688.852 74.3637 673.361 81.6519L700.685 137.967L681.893 147L651.457 84.4449H642.744V143.162H621.802ZM653.842 80.6392L683.662 141.926L695.589 136.193L668.156 79.6507C669.392 79.2308 670.573 78.754 671.698 78.2243C685.414 71.771 691.017 57.4648 691.017 42.4831C691.017 18.759 674.517 7.49009 661.396 7.49009H625.613V139.356H638.932V80.6392H653.842ZM749.337 4.92L777.964 71.9404L806.591 4.92L818.916 9.8625L784.524 87.361V139.356H771.205V87.361L737.012 9.8625L749.337 4.92ZM767.394 88.1621L731.936 7.79679L751.379 0L777.964 62.24L804.549 5.44414e-06L824 7.79993L788.335 88.1664V143.162H767.394V88.1621ZM168.289 86.7679L153.578 25.0854H153.18L138.469 86.7679H168.289ZM163.463 82.9621L153.379 40.6787L143.295 82.9621H163.463ZM280.483 23.1578H267.993V64.9714H283.663C288.381 64.9714 291.848 63.2957 294.27 60.0353C296.821 56.5997 298.539 50.9567 298.539 42.483C298.539 34.4348 296.585 29.847 293.842 27.2086C291.074 24.5464 286.768 23.1578 280.483 23.1578ZM655.234 23.1578H642.744V64.9714H658.414C663.132 64.9714 666.599 63.2957 669.021 60.0353C671.572 56.5997 673.29 50.9567 673.29 42.483C673.29 34.4348 671.336 29.847 668.593 27.2086C665.825 24.5464 661.519 23.1578 655.234 23.1578ZM264.181 19.3521V68.7772H283.663C295.194 68.7772 302.35 60.2761 302.35 42.4831C302.35 25.2831 294.001 19.3521 280.483 19.3521H264.181ZM655.234 19.3521C668.752 19.3521 677.101 25.2831 677.101 42.4831C677.101 60.2761 669.945 68.7772 658.414 68.7772H638.932V19.3521H655.234Z" fill="black"/>
</svg>
